<?xml version="1.0" encoding="UTF-8" standalone="no"?>
<!-- Created with matplotlib (http://matplotlib.org/) -->

<svg
   xmlns:dc="http://purl.org/dc/elements/1.1/"
   xmlns:cc="http://creativecommons.org/ns#"
   xmlns:rdf="http://www.w3.org/1999/02/22-rdf-syntax-ns#"
   xmlns:svg="http://www.w3.org/2000/svg"
   xmlns="http://www.w3.org/2000/svg"
   xmlns:xlink="http://www.w3.org/1999/xlink"
   xmlns:sodipodi="http://sodipodi.sourceforge.net/DTD/sodipodi-0.dtd"
   xmlns:inkscape="http://www.inkscape.org/namespaces/inkscape"
   height="410.34143pt"
   version="1.1"
   viewBox="0 0 355.82935 410.34143"
   width="355.82935pt"
   id="svg2"
   inkscape:version="0.91 r13725"
   sodipodi:docname="socialGraph.svg">
  <metadata
     id="metadata562">
    <rdf:RDF>
      <cc:Work
         rdf:about="">
        <dc:format>image/svg+xml</dc:format>
        <dc:type
           rdf:resource="http://purl.org/dc/dcmitype/StillImage" />
        <dc:title></dc:title>
      </cc:Work>
    </rdf:RDF>
  </metadata>
  <sodipodi:namedview
     pagecolor="#ffffff"
     bordercolor="#666666"
     borderopacity="1"
     objecttolerance="10"
     gridtolerance="10"
     guidetolerance="10"
     inkscape:pageopacity="0"
     inkscape:pageshadow="2"
     inkscape:window-width="1089"
     inkscape:window-height="669"
     id="namedview560"
     showgrid="false"
     fit-margin-top="0"
     fit-margin-left="0"
     fit-margin-right="0"
     fit-margin-bottom="0"
     inkscape:zoom="0.46354778"
     inkscape:cx="-1.4540464"
     inkscape:cy="152.26095"
     inkscape:window-x="0"
     inkscape:window-y="0"
     inkscape:window-maximized="0"
     inkscape:current-layer="svg2" />
  <defs
     id="defs4"
     style="stroke-linecap:butt;stroke-linejoin:round">
    <style
       type="text/css"
       id="style6">
*{stroke-linecap:butt;stroke-linejoin:round;}
  </style>
  </defs>
  <g
     style="stroke-linecap:butt;stroke-linejoin:round"
     id="patch_1"
     transform="translate(-88.720195,-85.709286)">
    <path
       inkscape:connector-curvature="0"
       id="path10"
       style="fill:#ffffff;stroke-linecap:butt;stroke-linejoin:round"
       d="M 0,576 576,576 576,0 0,0 Z" />
  </g>
  <g
     id="LineCollection_1"
     style="stroke-linecap:butt;stroke-linejoin:round"
     transform="translate(-88.720195,-85.709286)">
    <path
       clip-path="url(#pd92a2ed880)"
       d="M 232.43816,189.37539 174.66819,129.04797"
       style="fill:none;stroke:#7777ff;stroke-linecap:butt;stroke-linejoin:round"
       id="path14"
       inkscape:connector-curvature="0" />
    <path
       clip-path="url(#pd92a2ed880)"
       d="m 232.43816,189.37539 99.52476,66.33633"
       style="fill:none;stroke:#ffff00;stroke-linecap:butt;stroke-linejoin:round"
       id="path16"
       inkscape:connector-curvature="0" />
    <path
       clip-path="url(#pd92a2ed880)"
       d="m 232.43816,189.37539 -64.8376,-4.45004"
       style="fill:none;stroke:#7777ff;stroke-linecap:butt;stroke-linejoin:round"
       id="path18"
       inkscape:connector-curvature="0" />
    <path
       clip-path="url(#pd92a2ed880)"
       d="m 331.96292,255.71172 95.40422,18.26061"
       style="fill:none;stroke:#ff0000;stroke-linecap:butt;stroke-linejoin:round"
       id="path20"
       inkscape:connector-curvature="0" />
    <path
       clip-path="url(#pd92a2ed880)"
       d="m 331.96292,255.71172 35.3874,31.15439"
       style="fill:none;stroke:#ff0000;stroke-linecap:butt;stroke-linejoin:round"
       id="path22"
       inkscape:connector-curvature="0" />
    <path
       clip-path="url(#pd92a2ed880)"
       d="M 331.96292,255.71172 307.15449,189.4546"
       style="fill:none;stroke:#ff0000;stroke-linecap:butt;stroke-linejoin:round"
       id="path24"
       inkscape:connector-curvature="0" />
    <path
       clip-path="url(#pd92a2ed880)"
       d="m 331.96292,255.71172 -26.5779,-88.56196"
       style="fill:none;stroke:#ff0000;stroke-linecap:butt;stroke-linejoin:round"
       id="path26"
       inkscape:connector-curvature="0" />
    <path
       clip-path="url(#pd92a2ed880)"
       d="m 331.96292,255.71172 73.50556,13.97667"
       style="fill:none;stroke:#ff0000;stroke-linecap:butt;stroke-linejoin:round"
       id="path28"
       inkscape:connector-curvature="0" />
    <path
       clip-path="url(#pd92a2ed880)"
       d="m 331.96292,255.71172 -68.23318,76.0857"
       style="fill:none;stroke:#ff0000;stroke-linecap:butt;stroke-linejoin:round"
       id="path30"
       inkscape:connector-curvature="0" />
    <path
       clip-path="url(#pd92a2ed880)"
       d="m 331.96292,255.71172 -18.61587,48.83506"
       style="fill:none;stroke:#ffff00;stroke-linecap:butt;stroke-linejoin:round"
       id="path32"
       inkscape:connector-curvature="0" />
    <path
       clip-path="url(#pd92a2ed880)"
       d="M 331.96292,255.71172 408.6516,180.71239"
       style="fill:none;stroke:#ffff00;stroke-linecap:butt;stroke-linejoin:round"
       id="path34"
       inkscape:connector-curvature="0" />
    <path
       clip-path="url(#pd92a2ed880)"
       d="M 331.96292,255.71172 280.27241,171.50503"
       style="fill:none;stroke:#7777ff;stroke-linecap:butt;stroke-linejoin:round"
       id="path36"
       inkscape:connector-curvature="0" />
    <path
       clip-path="url(#pd92a2ed880)"
       d="M 331.96292,255.71172 255.43518,218.39493"
       style="fill:none;stroke:#ffff00;stroke-linecap:butt;stroke-linejoin:round"
       id="path38"
       inkscape:connector-curvature="0" />
    <path
       clip-path="url(#pd92a2ed880)"
       d="m 331.96292,255.71172 -99.63808,34.6209"
       style="fill:none;stroke:#ffff00;stroke-linecap:butt;stroke-linejoin:round"
       id="path40"
       inkscape:connector-curvature="0" />
    <path
       clip-path="url(#pd92a2ed880)"
       d="M 331.96292,255.71172 439.01793,232.91607"
       style="fill:none;stroke:#ffff00;stroke-linecap:butt;stroke-linejoin:round"
       id="path42"
       inkscape:connector-curvature="0" />
    <path
       clip-path="url(#pd92a2ed880)"
       d="m 331.96292,255.71172 25.7872,-12.64495"
       style="fill:none;stroke:#ff0000;stroke-linecap:butt;stroke-linejoin:round"
       id="path44"
       inkscape:connector-curvature="0" />
    <path
       clip-path="url(#pd92a2ed880)"
       d="M 331.96292,255.71172 288.78116,364.78959"
       style="fill:none;stroke:#7777ff;stroke-linecap:butt;stroke-linejoin:round"
       id="path46"
       inkscape:connector-curvature="0" />
    <path
       clip-path="url(#pd92a2ed880)"
       d="m 331.96292,255.71172 -82.52988,50.58284"
       style="fill:none;stroke:#ff0000;stroke-linecap:butt;stroke-linejoin:round"
       id="path48"
       inkscape:connector-curvature="0" />
    <path
       clip-path="url(#pd92a2ed880)"
       d="m 331.96292,255.71172 40.68052,110.31572"
       style="fill:none;stroke:#ffff00;stroke-linecap:butt;stroke-linejoin:round"
       id="path50"
       inkscape:connector-curvature="0" />
    <path
       clip-path="url(#pd92a2ed880)"
       d="m 331.96292,255.71172 2.90495,67.07968"
       style="fill:none;stroke:#ff0000;stroke-linecap:butt;stroke-linejoin:round"
       id="path52"
       inkscape:connector-curvature="0" />
    <path
       clip-path="url(#pd92a2ed880)"
       d="m 331.96292,255.71172 -94.94166,14.2264"
       style="fill:none;stroke:#ff0000;stroke-linecap:butt;stroke-linejoin:round"
       id="path54"
       inkscape:connector-curvature="0" />
    <path
       clip-path="url(#pd92a2ed880)"
       d="M 331.96292,255.71172 395.95745,213.8854"
       style="fill:none;stroke:#ff0000;stroke-linecap:butt;stroke-linejoin:round"
       id="path56"
       inkscape:connector-curvature="0" />
    <path
       clip-path="url(#pd92a2ed880)"
       d="m 331.96292,255.71172 82.63499,-30.66471"
       style="fill:none;stroke:#ff0000;stroke-linecap:butt;stroke-linejoin:round"
       id="path58"
       inkscape:connector-curvature="0" />
    <path
       clip-path="url(#pd92a2ed880)"
       d="M 331.96292,255.71172 377.2923,161.93185"
       style="fill:none;stroke:#ffff00;stroke-linecap:butt;stroke-linejoin:round"
       id="path60"
       inkscape:connector-curvature="0" />
    <path
       clip-path="url(#pd92a2ed880)"
       d="m 331.96292,255.71172 53.88291,61.97678"
       style="fill:none;stroke:#ff0000;stroke-linecap:butt;stroke-linejoin:round"
       id="path62"
       inkscape:connector-curvature="0" />
    <path
       clip-path="url(#pd92a2ed880)"
       d="m 331.96292,255.71172 -57.8227,53.08308"
       style="fill:none;stroke:#ff0000;stroke-linecap:butt;stroke-linejoin:round"
       id="path64"
       inkscape:connector-curvature="0" />
    <path
       clip-path="url(#pd92a2ed880)"
       d="m 331.96292,255.71172 79.10824,-9.43797"
       style="fill:none;stroke:#ff0000;stroke-linecap:butt;stroke-linejoin:round"
       id="path66"
       inkscape:connector-curvature="0" />
    <path
       clip-path="url(#pd92a2ed880)"
       d="m 331.96292,255.71172 -35.67404,36.21161"
       style="fill:none;stroke:#00ff00;stroke-linecap:butt;stroke-linejoin:round"
       id="path68"
       inkscape:connector-curvature="0" />
    <path
       clip-path="url(#pd92a2ed880)"
       d="m 331.96292,255.71172 21.54476,-80.61094"
       style="fill:none;stroke:#ff0000;stroke-linecap:butt;stroke-linejoin:round"
       id="path70"
       inkscape:connector-curvature="0" />
    <path
       clip-path="url(#pd92a2ed880)"
       d="m 331.96292,255.71172 1.89,-25.95412"
       style="fill:none;stroke:#ffff00;stroke-linecap:butt;stroke-linejoin:round"
       id="path72"
       inkscape:connector-curvature="0" />
    <path
       clip-path="url(#pd92a2ed880)"
       d="m 331.96292,255.71172 24.78911,79.42637"
       style="fill:none;stroke:#ffff00;stroke-linecap:butt;stroke-linejoin:round"
       id="path74"
       inkscape:connector-curvature="0" />
    <path
       clip-path="url(#pd92a2ed880)"
       d="m 331.96292,255.71172 -35.32937,-4.57656"
       style="fill:none;stroke:#ffff00;stroke-linecap:butt;stroke-linejoin:round"
       id="path76"
       inkscape:connector-curvature="0" />
    <path
       clip-path="url(#pd92a2ed880)"
       d="m 331.96292,255.71172 26.86606,-51.50489"
       style="fill:none;stroke:#ff0000;stroke-linecap:butt;stroke-linejoin:round"
       id="path78"
       inkscape:connector-curvature="0" />
    <path
       clip-path="url(#pd92a2ed880)"
       d="m 331.96292,255.71172 -15.96619,95.7767"
       style="fill:none;stroke:#7777ff;stroke-linecap:butt;stroke-linejoin:round"
       id="path80"
       inkscape:connector-curvature="0" />
    <path
       clip-path="url(#pd92a2ed880)"
       d="m 331.96292,255.71172 -77.69498,33.05982"
       style="fill:none;stroke:#ff0000;stroke-linecap:butt;stroke-linejoin:round"
       id="path82"
       inkscape:connector-curvature="0" />
    <path
       clip-path="url(#pd92a2ed880)"
       d="M 331.96292,255.71172 259.06646,148.67112"
       style="fill:none;stroke:#00ff00;stroke-linecap:butt;stroke-linejoin:round"
       id="path84"
       inkscape:connector-curvature="0" />
    <path
       clip-path="url(#pd92a2ed880)"
       d="m 331.96292,255.71172 76.36611,78.19518"
       style="fill:none;stroke:#ffff00;stroke-linecap:butt;stroke-linejoin:round"
       id="path86"
       inkscape:connector-curvature="0" />
    <path
       clip-path="url(#pd92a2ed880)"
       d="m 331.96292,255.71172 2.40871,-102.5184"
       style="fill:none;stroke:#ffff00;stroke-linecap:butt;stroke-linejoin:round"
       id="path88"
       inkscape:connector-curvature="0" />
    <path
       clip-path="url(#pd92a2ed880)"
       d="M 331.96292,255.71172 285.47208,220.43178"
       style="fill:none;stroke:#ff0000;stroke-linecap:butt;stroke-linejoin:round"
       id="path90"
       inkscape:connector-curvature="0" />
    <path
       clip-path="url(#pd92a2ed880)"
       d="m 386.02912,186.40511 -52.1762,43.35249"
       style="fill:none;stroke:#00ff00;stroke-linecap:butt;stroke-linejoin:round"
       id="path92"
       inkscape:connector-curvature="0" />
    <path
       clip-path="url(#pd92a2ed880)"
       d="m 386.02912,186.40511 -27.20014,17.80172"
       style="fill:none;stroke:#ff0000;stroke-linecap:butt;stroke-linejoin:round"
       id="path94"
       inkscape:connector-curvature="0" />
    <path
       clip-path="url(#pd92a2ed880)"
       d="m 386.02912,186.40511 -28.279,56.66166"
       style="fill:none;stroke:#ff0000;stroke-linecap:butt;stroke-linejoin:round"
       id="path96"
       inkscape:connector-curvature="0" />
    <path
       clip-path="url(#pd92a2ed880)"
       d="m 367.35032,286.86611 -93.2101,21.92869"
       style="fill:none;stroke:#00ff00;stroke-linecap:butt;stroke-linejoin:round"
       id="path98"
       inkscape:connector-curvature="0" />
    <path
       clip-path="url(#pd92a2ed880)"
       d="M 384.19562,442.62249 315.84156,398.25837"
       style="fill:none;stroke:#7777ff;stroke-linecap:butt;stroke-linejoin:round"
       id="path100"
       inkscape:connector-curvature="0" />
    <path
       clip-path="url(#pd92a2ed880)"
       d="m 384.19562,442.62249 19.75072,-41.88054"
       style="fill:none;stroke:#7777ff;stroke-linecap:butt;stroke-linejoin:round"
       id="path102"
       inkscape:connector-curvature="0" />
    <path
       clip-path="url(#pd92a2ed880)"
       d="M 384.19562,442.62249 372.64344,366.02744"
       style="fill:none;stroke:#7777ff;stroke-linecap:butt;stroke-linejoin:round"
       id="path104"
       inkscape:connector-curvature="0" />
    <path
       clip-path="url(#pd92a2ed880)"
       d="m 384.19562,442.62249 31.75788,-7.44461"
       style="fill:none;stroke:#7777ff;stroke-linecap:butt;stroke-linejoin:round"
       id="path106"
       inkscape:connector-curvature="0" />
    <path
       clip-path="url(#pd92a2ed880)"
       d="M 307.15449,189.4546 280.27241,171.50503"
       style="fill:none;stroke:#ff0000;stroke-linecap:butt;stroke-linejoin:round"
       id="path108"
       inkscape:connector-curvature="0" />
    <path
       clip-path="url(#pd92a2ed880)"
       d="M 305.38502,167.14976 259.06646,148.67112"
       style="fill:none;stroke:#ff0000;stroke-linecap:butt;stroke-linejoin:round"
       id="path110"
       inkscape:connector-curvature="0" />
    <path
       clip-path="url(#pd92a2ed880)"
       d="m 305.38502,167.14976 48.12266,7.95102"
       style="fill:none;stroke:#00ff00;stroke-linecap:butt;stroke-linejoin:round"
       id="path112"
       inkscape:connector-curvature="0" />
    <path
       clip-path="url(#pd92a2ed880)"
       d="m 405.46848,269.68839 5.60268,-23.41464"
       style="fill:none;stroke:#00ff00;stroke-linecap:butt;stroke-linejoin:round"
       id="path114"
       inkscape:connector-curvature="0" />
    <path
       clip-path="url(#pd92a2ed880)"
       d="m 405.46848,269.68839 9.12943,-44.64138"
       style="fill:none;stroke:#00ff00;stroke-linecap:butt;stroke-linejoin:round"
       id="path116"
       inkscape:connector-curvature="0" />
    <path
       clip-path="url(#pd92a2ed880)"
       d="M 263.72974,331.79742 96.531989,300.15136"
       style="fill:none;stroke:#00ff00;stroke-linecap:butt;stroke-linejoin:round"
       id="path118"
       inkscape:connector-curvature="0" />
    <path
       clip-path="url(#pd92a2ed880)"
       d="m 263.72974,331.79742 52.11182,66.46095"
       style="fill:none;stroke:#ffff00;stroke-linecap:butt;stroke-linejoin:round"
       id="path120"
       inkscape:connector-curvature="0" />
    <path
       clip-path="url(#pd92a2ed880)"
       d="m 263.72974,331.79742 -56.17005,-2.81738"
       style="fill:none;stroke:#ff0000;stroke-linecap:butt;stroke-linejoin:round"
       id="path122"
       inkscape:connector-curvature="0" />
    <path
       clip-path="url(#pd92a2ed880)"
       d="m 263.72974,331.79742 49.61731,-27.25064"
       style="fill:none;stroke:#ff0000;stroke-linecap:butt;stroke-linejoin:round"
       id="path124"
       inkscape:connector-curvature="0" />
    <path
       clip-path="url(#pd92a2ed880)"
       d="m 313.34705,304.54678 43.40498,30.59131"
       style="fill:none;stroke:#ffff00;stroke-linecap:butt;stroke-linejoin:round"
       id="path126"
       inkscape:connector-curvature="0" />
    <path
       clip-path="url(#pd92a2ed880)"
       d="M 313.34705,304.54678 254.26794,288.77154"
       style="fill:none;stroke:#00ff00;stroke-linecap:butt;stroke-linejoin:round"
       id="path128"
       inkscape:connector-curvature="0" />
    <path
       clip-path="url(#pd92a2ed880)"
       d="m 313.34705,304.54678 44.40307,-61.48001"
       style="fill:none;stroke:#ff0000;stroke-linecap:butt;stroke-linejoin:round"
       id="path130"
       inkscape:connector-curvature="0" />
    <path
       clip-path="url(#pd92a2ed880)"
       d="m 313.34705,304.54678 -39.20683,4.24802"
       style="fill:none;stroke:#ff0000;stroke-linecap:butt;stroke-linejoin:round"
       id="path132"
       inkscape:connector-curvature="0" />
    <path
       clip-path="url(#pd92a2ed880)"
       d="m 313.34705,304.54678 -24.56589,60.24281"
       style="fill:none;stroke:#7777ff;stroke-linecap:butt;stroke-linejoin:round"
       id="path134"
       inkscape:connector-curvature="0" />
    <path
       clip-path="url(#pd92a2ed880)"
       d="M 313.34705,304.54678 296.28888,291.92333"
       style="fill:none;stroke:#ffff00;stroke-linecap:butt;stroke-linejoin:round"
       id="path136"
       inkscape:connector-curvature="0" />
    <path
       clip-path="url(#pd92a2ed880)"
       d="m 167.60056,184.92535 7.06763,-55.87738"
       style="fill:none;stroke:#7777ff;stroke-linecap:butt;stroke-linejoin:round"
       id="path138"
       inkscape:connector-curvature="0" />
    <path
       clip-path="url(#pd92a2ed880)"
       d="M 167.60056,184.92535 296.28888,291.92333"
       style="fill:none;stroke:#00ff00;stroke-linecap:butt;stroke-linejoin:round"
       id="path140"
       inkscape:connector-curvature="0" />
    <path
       clip-path="url(#pd92a2ed880)"
       d="M 408.6516,180.71239 377.2923,161.93185"
       style="fill:none;stroke:#00ff00;stroke-linecap:butt;stroke-linejoin:round"
       id="path142"
       inkscape:connector-curvature="0" />
    <path
       clip-path="url(#pd92a2ed880)"
       d="m 408.6516,180.71239 -55.14392,-5.61161"
       style="fill:none;stroke:#00ff00;stroke-linecap:butt;stroke-linejoin:round"
       id="path144"
       inkscape:connector-curvature="0" />
    <path
       clip-path="url(#pd92a2ed880)"
       d="M 280.27241,171.50503 259.06646,148.67112"
       style="fill:none;stroke:#7777ff;stroke-linecap:butt;stroke-linejoin:round"
       id="path146"
       inkscape:connector-curvature="0" />
    <path
       clip-path="url(#pd92a2ed880)"
       d="m 280.27241,171.50503 54.09922,-18.31171"
       style="fill:none;stroke:#00ff00;stroke-linecap:butt;stroke-linejoin:round"
       id="path148"
       inkscape:connector-curvature="0" />
    <path
       clip-path="url(#pd92a2ed880)"
       d="m 280.27241,171.50503 16.36114,79.63013"
       style="fill:none;stroke:#7777ff;stroke-linecap:butt;stroke-linejoin:round"
       id="path150"
       inkscape:connector-curvature="0" />
    <path
       clip-path="url(#pd92a2ed880)"
       d="m 255.43518,218.39493 41.19837,32.74023"
       style="fill:none;stroke:#00ff00;stroke-linecap:butt;stroke-linejoin:round"
       id="path152"
       inkscape:connector-curvature="0" />
    <path
       clip-path="url(#pd92a2ed880)"
       d="m 232.32484,290.33262 -24.76515,38.64742"
       style="fill:none;stroke:#ff0000;stroke-linecap:butt;stroke-linejoin:round"
       id="path154"
       inkscape:connector-curvature="0" />
    <path
       clip-path="url(#pd92a2ed880)"
       d="m 232.32484,290.33262 63.96404,1.59071"
       style="fill:none;stroke:#7777ff;stroke-linecap:butt;stroke-linejoin:round"
       id="path156"
       inkscape:connector-curvature="0" />
    <path
       clip-path="url(#pd92a2ed880)"
       d="M 374.8444,464.1435 315.84156,398.25837"
       style="fill:none;stroke:#7777ff;stroke-linecap:butt;stroke-linejoin:round"
       id="path158"
       inkscape:connector-curvature="0" />
    <path
       clip-path="url(#pd92a2ed880)"
       d="m 374.8444,464.1435 29.10194,-63.40155"
       style="fill:none;stroke:#7777ff;stroke-linecap:butt;stroke-linejoin:round"
       id="path160"
       inkscape:connector-curvature="0" />
    <path
       clip-path="url(#pd92a2ed880)"
       d="m 374.8444,464.1435 -49.49031,26.00993"
       style="fill:none;stroke:#00ff00;stroke-linecap:butt;stroke-linejoin:round"
       id="path162"
       inkscape:connector-curvature="0" />
    <path
       clip-path="url(#pd92a2ed880)"
       d="m 374.8444,464.1435 -2.20096,-98.11606"
       style="fill:none;stroke:#00ff00;stroke-linecap:butt;stroke-linejoin:round"
       id="path164"
       inkscape:connector-curvature="0" />
    <path
       clip-path="url(#pd92a2ed880)"
       d="m 374.8444,464.1435 41.1091,-28.96562"
       style="fill:none;stroke:#7777ff;stroke-linecap:butt;stroke-linejoin:round"
       id="path166"
       inkscape:connector-curvature="0" />
    <path
       clip-path="url(#pd92a2ed880)"
       d="M 357.75012,243.06677 333.85292,229.7576"
       style="fill:none;stroke:#ff0000;stroke-linecap:butt;stroke-linejoin:round"
       id="path168"
       inkscape:connector-curvature="0" />
    <path
       clip-path="url(#pd92a2ed880)"
       d="m 357.75012,243.06677 1.07886,-38.85994"
       style="fill:none;stroke:#00ff00;stroke-linecap:butt;stroke-linejoin:round"
       id="path170"
       inkscape:connector-curvature="0" />
    <path
       clip-path="url(#pd92a2ed880)"
       d="M 415.9535,435.17788 372.64344,366.02744"
       style="fill:none;stroke:#7777ff;stroke-linecap:butt;stroke-linejoin:round"
       id="path172"
       inkscape:connector-curvature="0" />
    <path
       clip-path="url(#pd92a2ed880)"
       d="M 415.9535,435.17788 356.75203,335.13809"
       style="fill:none;stroke:#00ff00;stroke-linecap:butt;stroke-linejoin:round"
       id="path174"
       inkscape:connector-curvature="0" />
    <path
       clip-path="url(#pd92a2ed880)"
       d="m 288.78116,364.78959 27.21557,-13.30117"
       style="fill:none;stroke:#7777ff;stroke-linecap:butt;stroke-linejoin:round"
       id="path176"
       inkscape:connector-curvature="0" />
    <path
       clip-path="url(#pd92a2ed880)"
       d="m 249.43304,306.29456 4.8349,-17.52302"
       style="fill:none;stroke:#7777ff;stroke-linecap:butt;stroke-linejoin:round"
       id="path178"
       inkscape:connector-curvature="0" />
    <path
       clip-path="url(#pd92a2ed880)"
       d="m 249.43304,306.29456 -41.87335,22.68548"
       style="fill:none;stroke:#ff0000;stroke-linecap:butt;stroke-linejoin:round"
       id="path180"
       inkscape:connector-curvature="0" />
    <path
       clip-path="url(#pd92a2ed880)"
       d="m 249.43304,306.29456 24.70718,2.50024"
       style="fill:none;stroke:#00ff00;stroke-linecap:butt;stroke-linejoin:round"
       id="path182"
       inkscape:connector-curvature="0" />
    <path
       clip-path="url(#pd92a2ed880)"
       d="m 372.64344,366.02744 31.3029,34.71451"
       style="fill:none;stroke:#7777ff;stroke-linecap:butt;stroke-linejoin:round"
       id="path184"
       inkscape:connector-curvature="0" />
    <path
       clip-path="url(#pd92a2ed880)"
       d="M 372.64344,366.02744 356.75203,335.13809"
       style="fill:none;stroke:#7777ff;stroke-linecap:butt;stroke-linejoin:round"
       id="path186"
       inkscape:connector-curvature="0" />
    <path
       clip-path="url(#pd92a2ed880)"
       d="M 372.64344,366.02744 385.84583,317.6885"
       style="fill:none;stroke:#ff0000;stroke-linecap:butt;stroke-linejoin:round"
       id="path188"
       inkscape:connector-curvature="0" />
    <path
       clip-path="url(#pd92a2ed880)"
       d="m 372.64344,366.02744 -56.80188,32.23093"
       style="fill:none;stroke:#7777ff;stroke-linecap:butt;stroke-linejoin:round"
       id="path190"
       inkscape:connector-curvature="0" />
    <path
       clip-path="url(#pd92a2ed880)"
       d="m 156.14275,145.7917 102.92371,2.87942"
       style="fill:none;stroke:#00ff00;stroke-linecap:butt;stroke-linejoin:round"
       id="path192"
       inkscape:connector-curvature="0" />
    <path
       clip-path="url(#pd92a2ed880)"
       d="m 115.49071,395.20585 92.06898,-66.22581"
       style="fill:none;stroke:#00ff00;stroke-linecap:butt;stroke-linejoin:round"
       id="path194"
       inkscape:connector-curvature="0" />
    <path
       clip-path="url(#pd92a2ed880)"
       d="m 334.86787,322.7914 -18.87114,28.69702"
       style="fill:none;stroke:#ff0000;stroke-linecap:butt;stroke-linejoin:round"
       id="path196"
       inkscape:connector-curvature="0" />
    <path
       clip-path="url(#pd92a2ed880)"
       d="m 237.02126,269.93812 -29.46157,59.04192"
       style="fill:none;stroke:#ff0000;stroke-linecap:butt;stroke-linejoin:round"
       id="path198"
       inkscape:connector-curvature="0" />
    <path
       clip-path="url(#pd92a2ed880)"
       d="M 92.290909,330.1771 207.55969,328.98004"
       style="fill:none;stroke:#00ff00;stroke-linecap:butt;stroke-linejoin:round"
       id="path200"
       inkscape:connector-curvature="0" />
    <path
       clip-path="url(#pd92a2ed880)"
       d="m 395.95745,213.8854 15.11371,32.38835"
       style="fill:none;stroke:#00ff00;stroke-linecap:butt;stroke-linejoin:round"
       id="path202"
       inkscape:connector-curvature="0" />
    <path
       clip-path="url(#pd92a2ed880)"
       d="M 164.33487,450.7375 207.55969,328.98004"
       style="fill:none;stroke:#00ff00;stroke-linecap:butt;stroke-linejoin:round"
       id="path204"
       inkscape:connector-curvature="0" />
    <path
       clip-path="url(#pd92a2ed880)"
       d="m 414.59791,225.04701 -3.52675,21.22674"
       style="fill:none;stroke:#00ff00;stroke-linecap:butt;stroke-linejoin:round"
       id="path206"
       inkscape:connector-curvature="0" />
    <path
       clip-path="url(#pd92a2ed880)"
       d="m 265.93314,89.28 -6.86668,59.39112"
       style="fill:none;stroke:#7777ff;stroke-linecap:butt;stroke-linejoin:round"
       id="path208"
       inkscape:connector-curvature="0" />
    <path
       clip-path="url(#pd92a2ed880)"
       d="m 274.14022,308.7948 -66.58053,20.18524"
       style="fill:none;stroke:#ff0000;stroke-linecap:butt;stroke-linejoin:round"
       id="path210"
       inkscape:connector-curvature="0" />
    <path
       clip-path="url(#pd92a2ed880)"
       d="m 207.55969,328.98004 -71.67388,95.39897"
       style="fill:none;stroke:#00ff00;stroke-linecap:butt;stroke-linejoin:round"
       id="path212"
       inkscape:connector-curvature="0" />
    <path
       clip-path="url(#pd92a2ed880)"
       d="m 207.55969,328.98004 46.70825,-40.2085"
       style="fill:none;stroke:#ff0000;stroke-linecap:butt;stroke-linejoin:round"
       id="path214"
       inkscape:connector-curvature="0" />
    <path
       clip-path="url(#pd92a2ed880)"
       d="M 207.55969,328.98004 100.10086,363.94499"
       style="fill:none;stroke:#00ff00;stroke-linecap:butt;stroke-linejoin:round"
       id="path216"
       inkscape:connector-curvature="0" />
    <path
       clip-path="url(#pd92a2ed880)"
       d="M 296.28888,291.92333 333.85292,229.7576"
       style="fill:none;stroke:#ffff00;stroke-linecap:butt;stroke-linejoin:round"
       id="path218"
       inkscape:connector-curvature="0" />
    <path
       clip-path="url(#pd92a2ed880)"
       d="m 296.28888,291.92333 60.46315,43.21476"
       style="fill:none;stroke:#ffff00;stroke-linecap:butt;stroke-linejoin:round"
       id="path220"
       inkscape:connector-curvature="0" />
    <path
       clip-path="url(#pd92a2ed880)"
       d="m 296.28888,291.92333 0.34467,-40.78817"
       style="fill:none;stroke:#ffff00;stroke-linecap:butt;stroke-linejoin:round"
       id="path222"
       inkscape:connector-curvature="0" />
    <path
       clip-path="url(#pd92a2ed880)"
       d="m 296.28888,291.92333 19.70785,59.56509"
       style="fill:none;stroke:#7777ff;stroke-linecap:butt;stroke-linejoin:round"
       id="path224"
       inkscape:connector-curvature="0" />
    <path
       clip-path="url(#pd92a2ed880)"
       d="M 296.28888,291.92333 259.06646,148.67112"
       style="fill:none;stroke:#00ff00;stroke-linecap:butt;stroke-linejoin:round"
       id="path226"
       inkscape:connector-curvature="0" />
    <path
       clip-path="url(#pd92a2ed880)"
       d="m 296.28888,291.92333 19.55268,106.33504"
       style="fill:none;stroke:#ffff00;stroke-linecap:butt;stroke-linejoin:round"
       id="path228"
       inkscape:connector-curvature="0" />
    <path
       clip-path="url(#pd92a2ed880)"
       d="m 333.85292,229.7576 24.97606,-25.55077"
       style="fill:none;stroke:#ff0000;stroke-linecap:butt;stroke-linejoin:round"
       id="path230"
       inkscape:connector-curvature="0" />
    <path
       clip-path="url(#pd92a2ed880)"
       d="M 403.94634,400.74195 356.75203,335.13809"
       style="fill:none;stroke:#7777ff;stroke-linecap:butt;stroke-linejoin:round"
       id="path232"
       inkscape:connector-curvature="0" />
    <path
       clip-path="url(#pd92a2ed880)"
       d="m 403.94634,400.74195 4.38269,-66.83505"
       style="fill:none;stroke:#ffff00;stroke-linecap:butt;stroke-linejoin:round"
       id="path234"
       inkscape:connector-curvature="0" />
    <path
       clip-path="url(#pd92a2ed880)"
       d="m 325.35409,490.15343 -9.51253,-91.89506"
       style="fill:none;stroke:#7777ff;stroke-linecap:butt;stroke-linejoin:round"
       id="path236"
       inkscape:connector-curvature="0" />
    <path
       clip-path="url(#pd92a2ed880)"
       d="M 356.75203,335.13809 296.63355,251.13516"
       style="fill:none;stroke:#7777ff;stroke-linecap:butt;stroke-linejoin:round"
       id="path238"
       inkscape:connector-curvature="0" />
    <path
       clip-path="url(#pd92a2ed880)"
       d="m 356.75203,335.13809 66.1925,36.14648"
       style="fill:none;stroke:#ff0000;stroke-linecap:butt;stroke-linejoin:round"
       id="path240"
       inkscape:connector-curvature="0" />
    <path
       clip-path="url(#pd92a2ed880)"
       d="m 356.75203,335.13809 -40.91047,63.12028"
       style="fill:none;stroke:#00ff00;stroke-linecap:butt;stroke-linejoin:round"
       id="path242"
       inkscape:connector-curvature="0" />
    <path
       clip-path="url(#pd92a2ed880)"
       d="M 296.63355,251.13516 285.47208,220.43178"
       style="fill:none;stroke:#ff0000;stroke-linecap:butt;stroke-linejoin:round"
       id="path244"
       inkscape:connector-curvature="0" />
    <path
       clip-path="url(#pd92a2ed880)"
       d="m 269.37176,492.48 46.4698,-94.22163"
       style="fill:none;stroke:#00ff00;stroke-linecap:butt;stroke-linejoin:round"
       id="path246"
       inkscape:connector-curvature="0" />
  </g>
  <g
     id="PathCollection_1"
     style="stroke-linecap:butt;stroke-linejoin:round"
     transform="translate(-88.720195,-85.709286)">
    <path
       clip-path="url(#pd92a2ed880)"
       d="m 232.43816,193.76287 c 1.16357,0 2.27964,-0.46229 3.10241,-1.28506 0.82278,-0.82277 1.28507,-1.93884 1.28507,-3.10242 0,-1.16357 -0.46229,-2.27964 -1.28507,-3.10242 -0.82277,-0.82277 -1.93884,-1.28506 -3.10241,-1.28506 -1.16358,0 -2.27965,0.46229 -3.10242,1.28506 -0.82277,0.82278 -1.28507,1.93885 -1.28507,3.10242 0,1.16358 0.4623,2.27965 1.28507,3.10242 0.82277,0.82277 1.93884,1.28506 3.10242,1.28506 z"
       style="fill:#a0a0a0;fill-opacity:0.4;stroke-linecap:butt;stroke-linejoin:round"
       id="path249"
       inkscape:connector-curvature="0" />
    <path
       clip-path="url(#pd92a2ed880)"
       d="m 331.96292,368.29836 c 29.85833,0 58.49775,-11.86284 79.61077,-32.97586 21.11303,-21.11303 32.97586,-49.75245 32.97586,-79.61078 0,-29.85832 -11.86283,-58.49774 -32.97586,-79.61077 -21.11302,-21.11302 -49.75244,-32.97586 -79.61077,-32.97586 -29.85832,0 -58.49775,11.86284 -79.61077,32.97586 -21.11302,21.11303 -32.97586,49.75245 -32.97586,79.61077 0,29.85833 11.86284,58.49775 32.97586,79.61078 21.11302,21.11302 49.75245,32.97586 79.61077,32.97586 z"
       style="fill:#a0a0a0;fill-opacity:0.4;stroke-linecap:butt;stroke-linejoin:round"
       id="path251"
       inkscape:connector-curvature="0" />
    <path
       clip-path="url(#pd92a2ed880)"
       d="m 386.02912,190.79259 c 1.16358,0 2.27965,-0.46229 3.10242,-1.28507 0.82277,-0.82277 1.28506,-1.93884 1.28506,-3.10241 0,-1.16358 -0.46229,-2.27965 -1.28506,-3.10242 -0.82277,-0.82277 -1.93884,-1.28507 -3.10242,-1.28507 -1.16357,0 -2.27964,0.4623 -3.10241,1.28507 -0.82278,0.82277 -1.28507,1.93884 -1.28507,3.10242 0,1.16357 0.46229,2.27964 1.28507,3.10241 0.82277,0.82278 1.93884,1.28507 3.10241,1.28507 z"
       style="fill:#a0a0a0;fill-opacity:0.4;stroke-linecap:butt;stroke-linejoin:round"
       id="path253"
       inkscape:connector-curvature="0" />
    <path
       clip-path="url(#pd92a2ed880)"
       d="m 367.35032,290.67399 c 1.00986,0 1.9785,-0.40122 2.69258,-1.1153 0.71408,-0.71408 1.1153,-1.68272 1.1153,-2.69258 0,-1.00987 -0.40122,-1.9785 -1.1153,-2.69258 -0.71408,-0.71408 -1.68272,-1.11531 -2.69258,-1.11531 -1.00987,0 -1.97851,0.40123 -2.69259,1.11531 -0.71408,0.71408 -1.1153,1.68271 -1.1153,2.69258 0,1.00986 0.40122,1.9785 1.1153,2.69258 0.71408,0.71408 1.68272,1.1153 2.69259,1.1153 z"
       style="fill:#a0a0a0;fill-opacity:0.4;stroke-linecap:butt;stroke-linejoin:round"
       id="path255"
       inkscape:connector-curvature="0" />
    <path
       clip-path="url(#pd92a2ed880)"
       d="m 384.19562,447.96103 c 1.41579,0 2.7738,-0.5625 3.77491,-1.56362 1.00112,-1.00112 1.56363,-2.35912 1.56363,-3.77492 0,-1.41579 -0.56251,-2.77379 -1.56363,-3.77491 -1.00111,-1.00112 -2.35912,-1.56363 -3.77491,-1.56363 -1.4158,0 -2.7738,0.56251 -3.77492,1.56363 -1.00112,1.00112 -1.56362,2.35912 -1.56362,3.77491 0,1.4158 0.5625,2.7738 1.56362,3.77492 1.00112,1.00112 2.35912,1.56362 3.77492,1.56362 z"
       style="fill:#a0a0a0;fill-opacity:0.4;stroke-linecap:butt;stroke-linejoin:round"
       id="path257"
       inkscape:connector-curvature="0" />
    <path
       clip-path="url(#pd92a2ed880)"
       d="m 307.15449,193.26249 c 1.00987,0 1.97851,-0.40122 2.69259,-1.1153 0.71408,-0.71409 1.1153,-1.68272 1.1153,-2.69259 0,-1.00986 -0.40122,-1.9785 -1.1153,-2.69258 -0.71408,-0.71408 -1.68272,-1.1153 -2.69259,-1.1153 -1.00986,0 -1.9785,0.40122 -2.69258,1.1153 -0.71408,0.71408 -1.1153,1.68272 -1.1153,2.69258 0,1.00987 0.40122,1.9785 1.1153,2.69259 0.71408,0.71408 1.68272,1.1153 2.69258,1.1153 z"
       style="fill:#a0a0a0;fill-opacity:0.4;stroke-linecap:butt;stroke-linejoin:round"
       id="path259"
       inkscape:connector-curvature="0" />
    <path
       clip-path="url(#pd92a2ed880)"
       d="m 305.38502,171.53724 c 1.16357,0 2.27965,-0.46229 3.10242,-1.28507 0.82277,-0.82277 1.28506,-1.93884 1.28506,-3.10241 0,-1.16358 -0.46229,-2.27965 -1.28506,-3.10242 -0.82277,-0.82277 -1.93885,-1.28507 -3.10242,-1.28507 -1.16358,0 -2.27965,0.4623 -3.10242,1.28507 -0.82277,0.82277 -1.28506,1.93884 -1.28506,3.10242 0,1.16357 0.46229,2.27964 1.28506,3.10241 0.82277,0.82278 1.93884,1.28507 3.10242,1.28507 z"
       style="fill:#a0a0a0;fill-opacity:0.4;stroke-linecap:butt;stroke-linejoin:round"
       id="path261"
       inkscape:connector-curvature="0" />
    <path
       clip-path="url(#pd92a2ed880)"
       d="m 427.36714,277.54304 c 0.94697,0 1.85528,-0.37623 2.52488,-1.04583 0.66961,-0.66961 1.04584,-1.57792 1.04584,-2.52488 0,-0.94696 -0.37623,-1.85527 -1.04584,-2.52488 -0.6696,-0.6696 -1.57791,-1.04583 -2.52488,-1.04583 -0.94696,0 -1.85527,0.37623 -2.52487,1.04583 -0.66961,0.66961 -1.04584,1.57792 -1.04584,2.52488 0,0.94696 0.37623,1.85527 1.04584,2.52488 0.6696,0.6696 1.57791,1.04583 2.52487,1.04583 z"
       style="fill:#a0a0a0;fill-opacity:0.4;stroke-linecap:butt;stroke-linejoin:round"
       id="path263"
       inkscape:connector-curvature="0" />
    <path
       clip-path="url(#pd92a2ed880)"
       d="m 405.46848,274.07587 c 1.16357,0 2.27965,-0.46229 3.10242,-1.28506 0.82277,-0.82277 1.28506,-1.93885 1.28506,-3.10242 0,-1.16357 -0.46229,-2.27965 -1.28506,-3.10242 -0.82277,-0.82277 -1.93885,-1.28506 -3.10242,-1.28506 -1.16357,0 -2.27965,0.46229 -3.10242,1.28506 -0.82277,0.82277 -1.28506,1.93885 -1.28506,3.10242 0,1.16357 0.46229,2.27965 1.28506,3.10242 0.82277,0.82277 1.93885,1.28506 3.10242,1.28506 z"
       style="fill:#a0a0a0;fill-opacity:0.4;stroke-linecap:butt;stroke-linejoin:round"
       id="path265"
       inkscape:connector-curvature="0" />
    <path
       clip-path="url(#pd92a2ed880)"
       d="m 263.72974,338.4118 c 1.75416,0 3.4367,-0.69693 4.67708,-1.93731 1.24037,-1.24037 1.9373,-2.92292 1.9373,-4.67707 0,-1.75415 -0.69693,-3.4367 -1.9373,-4.67707 -1.24038,-1.24038 -2.92292,-1.93731 -4.67708,-1.93731 -1.75415,0 -3.43669,0.69693 -4.67707,1.93731 -1.24037,1.24037 -1.9373,2.92292 -1.9373,4.67707 0,1.75415 0.69693,3.4367 1.9373,4.67707 1.24038,1.24038 2.92292,1.93731 4.67707,1.93731 z"
       style="fill:#a0a0a0;fill-opacity:0.4;stroke-linecap:butt;stroke-linejoin:round"
       id="path267"
       inkscape:connector-curvature="0" />
    <path
       clip-path="url(#pd92a2ed880)"
       d="m 313.34705,316.40005 c 3.14352,0 6.15872,-1.24894 8.38152,-3.47175 2.22281,-2.2228 3.47175,-5.238 3.47175,-8.38152 0,-3.14353 -1.24894,-6.15872 -3.47175,-8.38153 -2.2228,-2.22281 -5.238,-3.47174 -8.38152,-3.47174 -3.14353,0 -6.15872,1.24893 -8.38153,3.47174 -2.22281,2.22281 -3.47174,5.238 -3.47174,8.38153 0,3.14352 1.24893,6.15872 3.47174,8.38152 2.22281,2.22281 5.238,3.47175 8.38153,3.47175 z"
       style="fill:#a0a0a0;fill-opacity:0.4;stroke-linecap:butt;stroke-linejoin:round"
       id="path269"
       inkscape:connector-curvature="0" />
    <path
       clip-path="url(#pd92a2ed880)"
       d="m 167.60056,189.31284 c 1.16357,0 2.27965,-0.4623 3.10242,-1.28507 0.82277,-0.82277 1.28506,-1.93884 1.28506,-3.10242 0,-1.16357 -0.46229,-2.27964 -1.28506,-3.10241 -0.82277,-0.82278 -1.93885,-1.28507 -3.10242,-1.28507 -1.16358,0 -2.27965,0.46229 -3.10242,1.28507 -0.82277,0.82277 -1.28506,1.93884 -1.28506,3.10241 0,1.16358 0.46229,2.27965 1.28506,3.10242 0.82277,0.82277 1.93884,1.28507 3.10242,1.28507 z"
       style="fill:#a0a0a0;fill-opacity:0.4;stroke-linecap:butt;stroke-linejoin:round"
       id="path271"
       inkscape:connector-curvature="0" />
    <path
       clip-path="url(#pd92a2ed880)"
       d="m 408.6516,185.09987 c 1.16357,0 2.27964,-0.4623 3.10242,-1.28507 0.82277,-0.82277 1.28506,-1.93884 1.28506,-3.10241 0,-1.16358 -0.46229,-2.27965 -1.28506,-3.10242 -0.82278,-0.82277 -1.93885,-1.28507 -3.10242,-1.28507 -1.16358,0 -2.27965,0.4623 -3.10242,1.28507 -0.82277,0.82277 -1.28507,1.93884 -1.28507,3.10242 0,1.16357 0.4623,2.27964 1.28507,3.10241 0.82277,0.82277 1.93884,1.28507 3.10242,1.28507 z"
       style="fill:#a0a0a0;fill-opacity:0.4;stroke-linecap:butt;stroke-linejoin:round"
       id="path273"
       inkscape:connector-curvature="0" />
    <path
       clip-path="url(#pd92a2ed880)"
       d="m 280.27241,178.11941 c 1.75415,0 3.4367,-0.69693 4.67707,-1.93731 1.24038,-1.24037 1.93731,-2.92291 1.93731,-4.67707 0,-1.75415 -0.69693,-3.4367 -1.93731,-4.67707 -1.24037,-1.24037 -2.92292,-1.93731 -4.67707,-1.93731 -1.75415,0 -3.4367,0.69694 -4.67707,1.93731 -1.24037,1.24037 -1.93731,2.92292 -1.93731,4.67707 0,1.75416 0.69694,3.4367 1.93731,4.67707 1.24037,1.24038 2.92292,1.93731 4.67707,1.93731 z"
       style="fill:#a0a0a0;fill-opacity:0.4;stroke-linecap:butt;stroke-linejoin:round"
       id="path275"
       inkscape:connector-curvature="0" />
    <path
       clip-path="url(#pd92a2ed880)"
       d="m 255.43518,222.20282 c 1.00987,0 1.9785,-0.40122 2.69258,-1.11531 0.71409,-0.71408 1.11531,-1.68271 1.11531,-2.69258 0,-1.00986 -0.40122,-1.9785 -1.11531,-2.69258 -0.71408,-0.71408 -1.68271,-1.1153 -2.69258,-1.1153 -1.00986,0 -1.9785,0.40122 -2.69258,1.1153 -0.71408,0.71408 -1.1153,1.68272 -1.1153,2.69258 0,1.00987 0.40122,1.9785 1.1153,2.69258 0.71408,0.71409 1.68272,1.11531 2.69258,1.11531 z"
       style="fill:#a0a0a0;fill-opacity:0.4;stroke-linecap:butt;stroke-linejoin:round"
       id="path277"
       inkscape:connector-curvature="0" />
    <path
       clip-path="url(#pd92a2ed880)"
       d="m 232.32484,294.7201 c 1.16357,0 2.27965,-0.46229 3.10242,-1.28506 0.82277,-0.82278 1.28506,-1.93885 1.28506,-3.10242 0,-1.16358 -0.46229,-2.27965 -1.28506,-3.10242 -0.82277,-0.82277 -1.93885,-1.28507 -3.10242,-1.28507 -1.16357,0 -2.27965,0.4623 -3.10242,1.28507 -0.82277,0.82277 -1.28506,1.93884 -1.28506,3.10242 0,1.16357 0.46229,2.27964 1.28506,3.10242 0.82277,0.82277 1.93885,1.28506 3.10242,1.28506 z"
       style="fill:#a0a0a0;fill-opacity:0.4;stroke-linecap:butt;stroke-linejoin:round"
       id="path279"
       inkscape:connector-curvature="0" />
    <path
       clip-path="url(#pd92a2ed880)"
       d="m 439.01793,236.48678 c 0.94696,0 1.85527,-0.37623 2.52488,-1.04583 0.6696,-0.66961 1.04583,-1.57792 1.04583,-2.52488 0,-0.94696 -0.37623,-1.85527 -1.04583,-2.52488 -0.66961,-0.6696 -1.57792,-1.04583 -2.52488,-1.04583 -0.94697,0 -1.85527,0.37623 -2.52488,1.04583 -0.6696,0.66961 -1.04583,1.57792 -1.04583,2.52488 0,0.94696 0.37623,1.85527 1.04583,2.52488 0.66961,0.6696 1.57791,1.04583 2.52488,1.04583 z"
       style="fill:#a0a0a0;fill-opacity:0.4;stroke-linecap:butt;stroke-linejoin:round"
       id="path281"
       inkscape:connector-curvature="0" />
    <path
       clip-path="url(#pd92a2ed880)"
       d="m 174.66819,132.85585 c 1.00986,0 1.9785,-0.40122 2.69258,-1.1153 0.71408,-0.71408 1.11531,-1.68272 1.11531,-2.69258 0,-1.00987 -0.40123,-1.97851 -1.11531,-2.69259 -0.71408,-0.71408 -1.68272,-1.1153 -2.69258,-1.1153 -1.00986,0 -1.9785,0.40122 -2.69258,1.1153 -0.71409,0.71408 -1.11531,1.68272 -1.11531,2.69259 0,1.00986 0.40122,1.9785 1.11531,2.69258 0.71408,0.71408 1.68272,1.1153 2.69258,1.1153 z"
       style="fill:#a0a0a0;fill-opacity:0.4;stroke-linecap:butt;stroke-linejoin:round"
       id="path283"
       inkscape:connector-curvature="0" />
    <path
       clip-path="url(#pd92a2ed880)"
       d="m 374.8444,470.75788 c 1.75416,0 3.4367,-0.69694 4.67707,-1.93731 1.24038,-1.24038 1.93731,-2.92292 1.93731,-4.67707 0,-1.75416 -0.69693,-3.4367 -1.93731,-4.67707 -1.24037,-1.24038 -2.92291,-1.93731 -4.67707,-1.93731 -1.75415,0 -3.4367,0.69693 -4.67707,1.93731 -1.24037,1.24037 -1.93731,2.92291 -1.93731,4.67707 0,1.75415 0.69694,3.43669 1.93731,4.67707 1.24037,1.24037 2.92292,1.93731 4.67707,1.93731 z"
       style="fill:#a0a0a0;fill-opacity:0.4;stroke-linecap:butt;stroke-linejoin:round"
       id="path285"
       inkscape:connector-curvature="0" />
    <path
       clip-path="url(#pd92a2ed880)"
       d="m 357.75012,249.68115 c 1.75416,0 3.4367,-0.69693 4.67707,-1.93731 1.24038,-1.24037 1.93731,-2.92291 1.93731,-4.67707 0,-1.75415 -0.69693,-3.43669 -1.93731,-4.67707 -1.24037,-1.24037 -2.92291,-1.93731 -4.67707,-1.93731 -1.75415,0 -3.4367,0.69694 -4.67707,1.93731 -1.24037,1.24038 -1.93731,2.92292 -1.93731,4.67707 0,1.75416 0.69694,3.4367 1.93731,4.67707 1.24037,1.24038 2.92292,1.93731 4.67707,1.93731 z"
       style="fill:#a0a0a0;fill-opacity:0.4;stroke-linecap:butt;stroke-linejoin:round"
       id="path287"
       inkscape:connector-curvature="0" />
    <path
       clip-path="url(#pd92a2ed880)"
       d="m 415.9535,440.51642 c 1.4158,0 2.7738,-0.5625 3.77492,-1.56362 1.00112,-1.00112 1.56362,-2.35912 1.56362,-3.77492 0,-1.41579 -0.5625,-2.77379 -1.56362,-3.77491 -1.00112,-1.00112 -2.35912,-1.56363 -3.77492,-1.56363 -1.4158,0 -2.7738,0.56251 -3.77492,1.56363 -1.00112,1.00112 -1.56362,2.35912 -1.56362,3.77491 0,1.4158 0.5625,2.7738 1.56362,3.77492 1.00112,1.00112 2.35912,1.56362 3.77492,1.56362 z"
       style="fill:#a0a0a0;fill-opacity:0.4;stroke-linecap:butt;stroke-linejoin:round"
       id="path289"
       inkscape:connector-curvature="0" />
    <path
       clip-path="url(#pd92a2ed880)"
       d="m 288.78116,369.17707 c 1.16358,0 2.27965,-0.46229 3.10242,-1.28507 0.82277,-0.82277 1.28507,-1.93884 1.28507,-3.10241 0,-1.16358 -0.4623,-2.27965 -1.28507,-3.10242 -0.82277,-0.82277 -1.93884,-1.28507 -3.10242,-1.28507 -1.16357,0 -2.27964,0.4623 -3.10241,1.28507 -0.82278,0.82277 -1.28507,1.93884 -1.28507,3.10242 0,1.16357 0.46229,2.27964 1.28507,3.10241 0.82277,0.82278 1.93884,1.28507 3.10241,1.28507 z"
       style="fill:#a0a0a0;fill-opacity:0.4;stroke-linecap:butt;stroke-linejoin:round"
       id="path291"
       inkscape:connector-curvature="0" />
    <path
       clip-path="url(#pd92a2ed880)"
       d="m 249.43304,311.6331 c 1.41579,0 2.77379,-0.5625 3.77491,-1.56363 1.00112,-1.00112 1.56363,-2.35912 1.56363,-3.77491 0,-1.4158 -0.56251,-2.7738 -1.56363,-3.77492 -1.00112,-1.00112 -2.35912,-1.56362 -3.77491,-1.56362 -1.4158,0 -2.7738,0.5625 -3.77492,1.56362 -1.00112,1.00112 -1.56362,2.35912 -1.56362,3.77492 0,1.41579 0.5625,2.77379 1.56362,3.77491 1.00112,1.00113 2.35912,1.56363 3.77492,1.56363 z"
       style="fill:#a0a0a0;fill-opacity:0.4;stroke-linecap:butt;stroke-linejoin:round"
       id="path293"
       inkscape:connector-curvature="0" />
    <path
       clip-path="url(#pd92a2ed880)"
       d="m 372.64344,377.88071 c 3.14352,0 6.15872,-1.24893 8.38153,-3.47174 2.2228,-2.2228 3.47174,-5.238 3.47174,-8.38153 0,-3.14352 -1.24894,-6.15872 -3.47174,-8.38152 -2.22281,-2.22281 -5.23801,-3.47175 -8.38153,-3.47175 -3.14353,0 -6.15872,1.24894 -8.38153,3.47175 -2.22281,2.2228 -3.47174,5.238 -3.47174,8.38152 0,3.14353 1.24893,6.15873 3.47174,8.38153 2.22281,2.22281 5.238,3.47174 8.38153,3.47174 z"
       style="fill:#a0a0a0;fill-opacity:0.4;stroke-linecap:butt;stroke-linejoin:round"
       id="path295"
       inkscape:connector-curvature="0" />
    <path
       clip-path="url(#pd92a2ed880)"
       d="m 156.14275,149.36242 c 0.94696,0 1.85527,-0.37624 2.52487,-1.04584 0.66961,-0.66961 1.04584,-1.57791 1.04584,-2.52488 0,-0.94696 -0.37623,-1.85527 -1.04584,-2.52487 -0.6696,-0.66961 -1.57791,-1.04584 -2.52487,-1.04584 -0.94697,0 -1.85527,0.37623 -2.52488,1.04584 -0.6696,0.6696 -1.04584,1.57791 -1.04584,2.52487 0,0.94697 0.37624,1.85527 1.04584,2.52488 0.66961,0.6696 1.57791,1.04584 2.52488,1.04584 z"
       style="fill:#a0a0a0;fill-opacity:0.4;stroke-linecap:butt;stroke-linejoin:round"
       id="path297"
       inkscape:connector-curvature="0" />
    <path
       clip-path="url(#pd92a2ed880)"
       d="m 115.49071,398.77656 c 0.94697,0 1.85528,-0.37623 2.52488,-1.04583 0.6696,-0.66961 1.04584,-1.57792 1.04584,-2.52488 0,-0.94696 -0.37624,-1.85527 -1.04584,-2.52488 -0.6696,-0.6696 -1.57791,-1.04583 -2.52488,-1.04583 -0.94696,0 -1.85527,0.37623 -2.52487,1.04583 -0.66961,0.66961 -1.04584,1.57792 -1.04584,2.52488 0,0.94696 0.37623,1.85527 1.04584,2.52488 0.6696,0.6696 1.57791,1.04583 2.52487,1.04583 z"
       style="fill:#a0a0a0;fill-opacity:0.4;stroke-linecap:butt;stroke-linejoin:round"
       id="path299"
       inkscape:connector-curvature="0" />
    <path
       clip-path="url(#pd92a2ed880)"
       d="m 334.86787,326.59929 c 1.00986,0 1.9785,-0.40122 2.69258,-1.1153 0.71408,-0.71408 1.1153,-1.68272 1.1153,-2.69259 0,-1.00986 -0.40122,-1.9785 -1.1153,-2.69258 -0.71408,-0.71408 -1.68272,-1.1153 -2.69258,-1.1153 -1.00987,0 -1.9785,0.40122 -2.69259,1.1153 -0.71408,0.71408 -1.1153,1.68272 -1.1153,2.69258 0,1.00987 0.40122,1.97851 1.1153,2.69259 0.71409,0.71408 1.68272,1.1153 2.69259,1.1153 z"
       style="fill:#a0a0a0;fill-opacity:0.4;stroke-linecap:butt;stroke-linejoin:round"
       id="path301"
       inkscape:connector-curvature="0" />
    <path
       clip-path="url(#pd92a2ed880)"
       d="m 237.02126,273.74601 c 1.00986,0 1.9785,-0.40123 2.69258,-1.11531 0.71408,-0.71408 1.11531,-1.68271 1.11531,-2.69258 0,-1.00986 -0.40123,-1.9785 -1.11531,-2.69258 -0.71408,-0.71408 -1.68272,-1.1153 -2.69258,-1.1153 -1.00986,0 -1.9785,0.40122 -2.69258,1.1153 -0.71408,0.71408 -1.11531,1.68272 -1.11531,2.69258 0,1.00987 0.40123,1.9785 1.11531,2.69258 0.71408,0.71408 1.68272,1.11531 2.69258,1.11531 z"
       style="fill:#a0a0a0;fill-opacity:0.4;stroke-linecap:butt;stroke-linejoin:round"
       id="path303"
       inkscape:connector-curvature="0" />
    <path
       clip-path="url(#pd92a2ed880)"
       d="m 92.290909,333.74781 c 0.946965,0 1.855271,-0.37623 2.524876,-1.04583 0.669605,-0.66961 1.045838,-1.57792 1.045838,-2.52488 0,-0.94696 -0.376233,-1.85527 -1.045838,-2.52488 -0.669605,-0.6696 -1.577911,-1.04584 -2.524876,-1.04584 -0.946964,0 -1.855271,0.37624 -2.524876,1.04584 -0.669605,0.66961 -1.045838,1.57792 -1.045838,2.52488 0,0.94696 0.376233,1.85527 1.045838,2.52488 0.669605,0.6696 1.577912,1.04583 2.524876,1.04583 z"
       style="fill:#a0a0a0;fill-opacity:0.4;stroke-linecap:butt;stroke-linejoin:round"
       id="path305"
       inkscape:connector-curvature="0" />
    <path
       clip-path="url(#pd92a2ed880)"
       d="m 395.95745,217.69329 c 1.00986,0 1.9785,-0.40122 2.69258,-1.1153 0.71408,-0.71408 1.1153,-1.68272 1.1153,-2.69259 0,-1.00986 -0.40122,-1.9785 -1.1153,-2.69258 -0.71408,-0.71408 -1.68272,-1.1153 -2.69258,-1.1153 -1.00987,0 -1.9785,0.40122 -2.69258,1.1153 -0.71408,0.71408 -1.11531,1.68272 -1.11531,2.69258 0,1.00987 0.40123,1.97851 1.11531,2.69259 0.71408,0.71408 1.68271,1.1153 2.69258,1.1153 z"
       style="fill:#a0a0a0;fill-opacity:0.4;stroke-linecap:butt;stroke-linejoin:round"
       id="path307"
       inkscape:connector-curvature="0" />
    <path
       clip-path="url(#pd92a2ed880)"
       d="m 164.33487,454.30822 c 0.94697,0 1.85527,-0.37624 2.52488,-1.04584 0.6696,-0.66961 1.04584,-1.57791 1.04584,-2.52488 0,-0.94696 -0.37624,-1.85527 -1.04584,-2.52487 -0.66961,-0.66961 -1.57791,-1.04584 -2.52488,-1.04584 -0.94696,0 -1.85527,0.37623 -2.52487,1.04584 -0.66961,0.6696 -1.04584,1.57791 -1.04584,2.52487 0,0.94697 0.37623,1.85527 1.04584,2.52488 0.6696,0.6696 1.57791,1.04584 2.52487,1.04584 z"
       style="fill:#a0a0a0;fill-opacity:0.4;stroke-linecap:butt;stroke-linejoin:round"
       id="path309"
       inkscape:connector-curvature="0" />
    <path
       clip-path="url(#pd92a2ed880)"
       d="m 414.59791,229.4345 c 1.16357,0 2.27965,-0.4623 3.10242,-1.28507 0.82277,-0.82277 1.28506,-1.93884 1.28506,-3.10242 0,-1.16357 -0.46229,-2.27964 -1.28506,-3.10241 -0.82277,-0.82278 -1.93885,-1.28507 -3.10242,-1.28507 -1.16357,0 -2.27965,0.46229 -3.10242,1.28507 -0.82277,0.82277 -1.28506,1.93884 -1.28506,3.10241 0,1.16358 0.46229,2.27965 1.28506,3.10242 0.82277,0.82277 1.93885,1.28507 3.10242,1.28507 z"
       style="fill:#a0a0a0;fill-opacity:0.4;stroke-linecap:butt;stroke-linejoin:round"
       id="path311"
       inkscape:connector-curvature="0" />
    <path
       clip-path="url(#pd92a2ed880)"
       d="m 377.2923,165.73973 c 1.00986,0 1.9785,-0.40122 2.69258,-1.1153 0.71408,-0.71408 1.1153,-1.68272 1.1153,-2.69258 0,-1.00987 -0.40122,-1.9785 -1.1153,-2.69259 -0.71408,-0.71408 -1.68272,-1.1153 -2.69258,-1.1153 -1.00986,0 -1.9785,0.40122 -2.69259,1.1153 -0.71408,0.71409 -1.1153,1.68272 -1.1153,2.69259 0,1.00986 0.40122,1.9785 1.1153,2.69258 0.71409,0.71408 1.68273,1.1153 2.69259,1.1153 z"
       style="fill:#a0a0a0;fill-opacity:0.4;stroke-linecap:butt;stroke-linejoin:round"
       id="path313"
       inkscape:connector-curvature="0" />
    <path
       clip-path="url(#pd92a2ed880)"
       d="m 265.93314,92.850714 c 0.94697,0 1.85527,-0.376233 2.52488,-1.045838 0.6696,-0.669605 1.04583,-1.577912 1.04583,-2.524876 0,-0.946964 -0.37623,-1.855271 -1.04583,-2.524876 -0.66961,-0.669605 -1.57791,-1.045838 -2.52488,-1.045838 -0.94696,0 -1.85527,0.376233 -2.52488,1.045838 -0.6696,0.669605 -1.04583,1.577912 -1.04583,2.524876 0,0.946964 0.37623,1.855271 1.04583,2.524876 0.66961,0.669605 1.57792,1.045838 2.52488,1.045838 z"
       style="fill:#a0a0a0;fill-opacity:0.4;stroke-linecap:butt;stroke-linejoin:round"
       id="path315"
       inkscape:connector-curvature="0" />
    <path
       clip-path="url(#pd92a2ed880)"
       d="m 385.84583,321.49638 c 1.00987,0 1.9785,-0.40122 2.69258,-1.1153 0.71409,-0.71408 1.11531,-1.68272 1.11531,-2.69258 0,-1.00987 -0.40122,-1.9785 -1.11531,-2.69258 -0.71408,-0.71409 -1.68271,-1.11531 -2.69258,-1.11531 -1.00986,0 -1.9785,0.40122 -2.69258,1.11531 -0.71408,0.71408 -1.1153,1.68271 -1.1153,2.69258 0,1.00986 0.40122,1.9785 1.1153,2.69258 0.71408,0.71408 1.68272,1.1153 2.69258,1.1153 z"
       style="fill:#a0a0a0;fill-opacity:0.4;stroke-linecap:butt;stroke-linejoin:round"
       id="path317"
       inkscape:connector-curvature="0" />
    <path
       clip-path="url(#pd92a2ed880)"
       d="m 274.14022,315.40918 c 1.75415,0 3.4367,-0.69693 4.67707,-1.93731 1.24037,-1.24037 1.93731,-2.92292 1.93731,-4.67707 0,-1.75415 -0.69694,-3.4367 -1.93731,-4.67707 -1.24037,-1.24037 -2.92292,-1.93731 -4.67707,-1.93731 -1.75416,0 -3.4367,0.69694 -4.67707,1.93731 -1.24038,1.24037 -1.93731,2.92292 -1.93731,4.67707 0,1.75415 0.69693,3.4367 1.93731,4.67707 1.24037,1.24038 2.92291,1.93731 4.67707,1.93731 z"
       style="fill:#a0a0a0;fill-opacity:0.4;stroke-linecap:butt;stroke-linejoin:round"
       id="path319"
       inkscape:connector-curvature="0" />
    <path
       clip-path="url(#pd92a2ed880)"
       d="m 207.55969,347.56094 c 4.92772,0 9.65427,-1.9578 13.13869,-5.44222 3.48442,-3.48442 5.44222,-8.21097 5.44222,-13.13868 0,-4.92771 -1.9578,-9.65426 -5.44222,-13.13868 -3.48442,-3.48442 -8.21097,-5.44222 -13.13869,-5.44222 -4.92771,0 -9.65426,1.9578 -13.13868,5.44222 -3.48442,3.48442 -5.44222,8.21097 -5.44222,13.13868 0,4.92771 1.9578,9.65426 5.44222,13.13868 3.48442,3.48442 8.21097,5.44222 13.13868,5.44222 z"
       style="fill:#a0a0a0;fill-opacity:0.4;stroke-linecap:butt;stroke-linejoin:round"
       id="path321"
       inkscape:connector-curvature="0" />
    <path
       clip-path="url(#pd92a2ed880)"
       d="m 411.07116,251.61229 c 1.4158,0 2.7738,-0.5625 3.77492,-1.56362 1.00112,-1.00112 1.56362,-2.35912 1.56362,-3.77492 0,-1.4158 -0.5625,-2.7738 -1.56362,-3.77492 -1.00112,-1.00112 -2.35912,-1.56362 -3.77492,-1.56362 -1.41579,0 -2.77379,0.5625 -3.77491,1.56362 -1.00112,1.00112 -1.56363,2.35912 -1.56363,3.77492 0,1.4158 0.56251,2.7738 1.56363,3.77492 1.00112,1.00112 2.35912,1.56362 3.77491,1.56362 z"
       style="fill:#a0a0a0;fill-opacity:0.4;stroke-linecap:butt;stroke-linejoin:round"
       id="path323"
       inkscape:connector-curvature="0" />
    <path
       clip-path="url(#pd92a2ed880)"
       d="m 296.28888,308.12518 c 4.29678,0 8.41815,-1.70712 11.45644,-4.74541 3.03828,-3.03828 4.74541,-7.15965 4.74541,-11.45644 0,-4.29678 -1.70713,-8.41815 -4.74541,-11.45644 -3.03829,-3.03828 -7.15966,-4.74541 -11.45644,-4.74541 -4.29679,0 -8.41816,1.70713 -11.45644,4.74541 -3.03829,3.03829 -4.74542,7.15966 -4.74542,11.45644 0,4.29679 1.70713,8.41816 4.74542,11.45644 3.03828,3.03829 7.15965,4.74541 11.45644,4.74541 z"
       style="fill:#a0a0a0;fill-opacity:0.4;stroke-linecap:butt;stroke-linejoin:round"
       id="path325"
       inkscape:connector-curvature="0" />
    <path
       clip-path="url(#pd92a2ed880)"
       d="m 353.50768,179.48827 c 1.16357,0 2.27965,-0.4623 3.10242,-1.28507 0.82277,-0.82277 1.28506,-1.93884 1.28506,-3.10242 0,-1.16357 -0.46229,-2.27964 -1.28506,-3.10241 -0.82277,-0.82278 -1.93885,-1.28507 -3.10242,-1.28507 -1.16357,0 -2.27965,0.46229 -3.10242,1.28507 -0.82277,0.82277 -1.28506,1.93884 -1.28506,3.10241 0,1.16358 0.46229,2.27965 1.28506,3.10242 0.82277,0.82277 1.93885,1.28507 3.10242,1.28507 z"
       style="fill:#a0a0a0;fill-opacity:0.4;stroke-linecap:butt;stroke-linejoin:round"
       id="path327"
       inkscape:connector-curvature="0" />
    <path
       clip-path="url(#pd92a2ed880)"
       d="m 333.85292,236.37198 c 1.75416,0 3.4367,-0.69694 4.67707,-1.93731 1.24038,-1.24037 1.93731,-2.92292 1.93731,-4.67707 0,-1.75416 -0.69693,-3.4367 -1.93731,-4.67707 -1.24037,-1.24038 -2.92291,-1.93731 -4.67707,-1.93731 -1.75415,0 -3.4367,0.69693 -4.67707,1.93731 -1.24037,1.24037 -1.93731,2.92291 -1.93731,4.67707 0,1.75415 0.69694,3.4367 1.93731,4.67707 1.24037,1.24037 2.92292,1.93731 4.67707,1.93731 z"
       style="fill:#a0a0a0;fill-opacity:0.4;stroke-linecap:butt;stroke-linejoin:round"
       id="path329"
       inkscape:connector-curvature="0" />
    <path
       clip-path="url(#pd92a2ed880)"
       d="m 403.94634,407.35633 c 1.75415,0 3.4367,-0.69693 4.67707,-1.93731 1.24037,-1.24037 1.93731,-2.92291 1.93731,-4.67707 0,-1.75415 -0.69694,-3.4367 -1.93731,-4.67707 -1.24037,-1.24037 -2.92292,-1.93731 -4.67707,-1.93731 -1.75416,0 -3.4367,0.69694 -4.67707,1.93731 -1.24038,1.24037 -1.93731,2.92292 -1.93731,4.67707 0,1.75416 0.69693,3.4367 1.93731,4.67707 1.24037,1.24038 2.92291,1.93731 4.67707,1.93731 z"
       style="fill:#a0a0a0;fill-opacity:0.4;stroke-linecap:butt;stroke-linejoin:round"
       id="path331"
       inkscape:connector-curvature="0" />
    <path
       clip-path="url(#pd92a2ed880)"
       d="m 135.88581,427.94972 c 0.94696,0 1.85527,-0.37623 2.52487,-1.04584 0.66961,-0.6696 1.04584,-1.57791 1.04584,-2.52487 0,-0.94697 -0.37623,-1.85528 -1.04584,-2.52488 -0.6696,-0.66961 -1.57791,-1.04584 -2.52487,-1.04584 -0.94697,0 -1.85527,0.37623 -2.52488,1.04584 -0.6696,0.6696 -1.04584,1.57791 -1.04584,2.52488 0,0.94696 0.37624,1.85527 1.04584,2.52487 0.66961,0.66961 1.57791,1.04584 2.52488,1.04584 z"
       style="fill:#a0a0a0;fill-opacity:0.4;stroke-linecap:butt;stroke-linejoin:round"
       id="path333"
       inkscape:connector-curvature="0" />
    <path
       clip-path="url(#pd92a2ed880)"
       d="m 325.35409,493.96132 c 1.00986,0 1.9785,-0.40123 2.69258,-1.11531 0.71408,-0.71408 1.1153,-1.68272 1.1153,-2.69258 0,-1.00986 -0.40122,-1.9785 -1.1153,-2.69258 -0.71408,-0.71408 -1.68272,-1.11531 -2.69258,-1.11531 -1.00987,0 -1.9785,0.40123 -2.69259,1.11531 -0.71408,0.71408 -1.1153,1.68272 -1.1153,2.69258 0,1.00986 0.40122,1.9785 1.1153,2.69258 0.71409,0.71408 1.68272,1.11531 2.69259,1.11531 z"
       style="fill:#a0a0a0;fill-opacity:0.4;stroke-linecap:butt;stroke-linejoin:round"
       id="path335"
       inkscape:connector-curvature="0" />
    <path
       clip-path="url(#pd92a2ed880)"
       d="m 356.75203,349.09337 c 3.70098,0 7.25088,-1.47041 9.86788,-4.08741 2.61699,-2.61699 4.0874,-6.16689 4.0874,-9.86787 0,-3.70099 -1.47041,-7.25089 -4.0874,-9.86788 -2.617,-2.61699 -6.1669,-4.08741 -9.86788,-4.08741 -3.70099,0 -7.25089,1.47042 -9.86788,4.08741 -2.61699,2.61699 -4.08741,6.16689 -4.08741,9.86788 0,3.70098 1.47042,7.25088 4.08741,9.86787 2.61699,2.617 6.16689,4.08741 9.86788,4.08741 z"
       style="fill:#a0a0a0;fill-opacity:0.4;stroke-linecap:butt;stroke-linejoin:round"
       id="path337"
       inkscape:connector-curvature="0" />
    <path
       clip-path="url(#pd92a2ed880)"
       d="m 296.63355,259.28991 c 2.16267,0 4.23704,-0.85924 5.76628,-2.38847 1.52924,-1.52924 2.38847,-3.60362 2.38847,-5.76628 0,-2.16267 -0.85923,-4.23705 -2.38847,-5.76628 -1.52924,-1.52924 -3.60361,-2.38848 -5.76628,-2.38848 -2.16267,0 -4.23705,0.85924 -5.76628,2.38848 -1.52924,1.52923 -2.38847,3.60361 -2.38847,5.76628 0,2.16266 0.85923,4.23704 2.38847,5.76628 1.52923,1.52923 3.60361,2.38847 5.76628,2.38847 z"
       style="fill:#a0a0a0;fill-opacity:0.4;stroke-linecap:butt;stroke-linejoin:round"
       id="path339"
       inkscape:connector-curvature="0" />
    <path
       clip-path="url(#pd92a2ed880)"
       d="m 422.94453,374.85529 c 0.94696,0 1.85527,-0.37623 2.52487,-1.04584 0.66961,-0.66961 1.04584,-1.57791 1.04584,-2.52488 0,-0.94696 -0.37623,-1.85527 -1.04584,-2.52487 -0.6696,-0.66961 -1.57791,-1.04584 -2.52487,-1.04584 -0.94697,0 -1.85527,0.37623 -2.52488,1.04584 -0.6696,0.6696 -1.04584,1.57791 -1.04584,2.52487 0,0.94697 0.37624,1.85527 1.04584,2.52488 0.66961,0.66961 1.57791,1.04584 2.52488,1.04584 z"
       style="fill:#a0a0a0;fill-opacity:0.4;stroke-linecap:butt;stroke-linejoin:round"
       id="path341"
       inkscape:connector-curvature="0" />
    <path
       clip-path="url(#pd92a2ed880)"
       d="m 358.82898,209.54537 c 1.4158,0 2.7738,-0.5625 3.77492,-1.56362 1.00112,-1.00112 1.56362,-2.35912 1.56362,-3.77492 0,-1.4158 -0.5625,-2.7738 -1.56362,-3.77492 -1.00112,-1.00112 -2.35912,-1.56362 -3.77492,-1.56362 -1.41579,0 -2.77379,0.5625 -3.77491,1.56362 -1.00112,1.00112 -1.56362,2.35912 -1.56362,3.77492 0,1.4158 0.5625,2.7738 1.56362,3.77492 1.00112,1.00112 2.35912,1.56362 3.77491,1.56362 z"
       style="fill:#a0a0a0;fill-opacity:0.4;stroke-linecap:butt;stroke-linejoin:round"
       id="path343"
       inkscape:connector-curvature="0" />
    <path
       clip-path="url(#pd92a2ed880)"
       d="m 315.99673,356.82696 c 1.4158,0 2.7738,-0.5625 3.77492,-1.56362 1.00112,-1.00112 1.56362,-2.35912 1.56362,-3.77492 0,-1.41579 -0.5625,-2.77379 -1.56362,-3.77491 -1.00112,-1.00112 -2.35912,-1.56363 -3.77492,-1.56363 -1.4158,0 -2.7738,0.56251 -3.77492,1.56363 -1.00112,1.00112 -1.56362,2.35912 -1.56362,3.77491 0,1.4158 0.5625,2.7738 1.56362,3.77492 1.00112,1.00112 2.35912,1.56362 3.77492,1.56362 z"
       style="fill:#a0a0a0;fill-opacity:0.4;stroke-linecap:butt;stroke-linejoin:round"
       id="path345"
       inkscape:connector-curvature="0" />
    <path
       clip-path="url(#pd92a2ed880)"
       d="m 269.37176,496.05071 c 0.94697,0 1.85527,-0.37623 2.52488,-1.04583 0.6696,-0.66961 1.04584,-1.57792 1.04584,-2.52488 0,-0.94696 -0.37624,-1.85527 -1.04584,-2.52488 -0.66961,-0.6696 -1.57791,-1.04583 -2.52488,-1.04583 -0.94696,0 -1.85527,0.37623 -2.52487,1.04583 -0.66961,0.66961 -1.04584,1.57792 -1.04584,2.52488 0,0.94696 0.37623,1.85527 1.04584,2.52488 0.6696,0.6696 1.57791,1.04583 2.52487,1.04583 z"
       style="fill:#a0a0a0;fill-opacity:0.4;stroke-linecap:butt;stroke-linejoin:round"
       id="path347"
       inkscape:connector-curvature="0" />
    <path
       clip-path="url(#pd92a2ed880)"
       d="m 254.26794,294.11008 c 1.4158,0 2.7738,-0.5625 3.77492,-1.56362 1.00112,-1.00112 1.56362,-2.35912 1.56362,-3.77492 0,-1.4158 -0.5625,-2.7738 -1.56362,-3.77492 -1.00112,-1.00112 -2.35912,-1.56362 -3.77492,-1.56362 -1.4158,0 -2.7738,0.5625 -3.77492,1.56362 -1.00112,1.00112 -1.56362,2.35912 -1.56362,3.77492 0,1.4158 0.5625,2.7738 1.56362,3.77492 1.00112,1.00112 2.35912,1.56362 3.77492,1.56362 z"
       style="fill:#a0a0a0;fill-opacity:0.4;stroke-linecap:butt;stroke-linejoin:round"
       id="path349"
       inkscape:connector-curvature="0" />
    <path
       clip-path="url(#pd92a2ed880)"
       d="m 259.06646,156.82587 c 2.16267,0 4.23705,-0.85924 5.76628,-2.38847 1.52924,-1.52924 2.38848,-3.60362 2.38848,-5.76628 0,-2.16267 -0.85924,-4.23705 -2.38848,-5.76628 -1.52923,-1.52924 -3.60361,-2.38848 -5.76628,-2.38848 -2.16266,0 -4.23704,0.85924 -5.76628,2.38848 -1.52923,1.52923 -2.38847,3.60361 -2.38847,5.76628 0,2.16266 0.85924,4.23704 2.38847,5.76628 1.52924,1.52923 3.60362,2.38847 5.76628,2.38847 z"
       style="fill:#a0a0a0;fill-opacity:0.4;stroke-linecap:butt;stroke-linejoin:round"
       id="path351"
       inkscape:connector-curvature="0" />
    <path
       clip-path="url(#pd92a2ed880)"
       d="m 315.84156,410.11164 c 3.14352,0 6.15871,-1.24893 8.38152,-3.47174 2.22281,-2.22281 3.47174,-5.238 3.47174,-8.38153 0,-3.14352 -1.24893,-6.15872 -3.47174,-8.38153 -2.22281,-2.2228 -5.238,-3.47174 -8.38152,-3.47174 -3.14353,0 -6.15873,1.24894 -8.38153,3.47174 -2.22281,2.22281 -3.47174,5.23801 -3.47174,8.38153 0,3.14353 1.24893,6.15872 3.47174,8.38153 2.2228,2.22281 5.238,3.47174 8.38153,3.47174 z"
       style="fill:#a0a0a0;fill-opacity:0.4;stroke-linecap:butt;stroke-linejoin:round"
       id="path353"
       inkscape:connector-curvature="0" />
    <path
       clip-path="url(#pd92a2ed880)"
       d="m 408.32903,337.71478 c 1.00986,0 1.9785,-0.40122 2.69258,-1.1153 0.71408,-0.71408 1.11531,-1.68272 1.11531,-2.69258 0,-1.00987 -0.40123,-1.9785 -1.11531,-2.69259 -0.71408,-0.71408 -1.68272,-1.1153 -2.69258,-1.1153 -1.00986,0 -1.9785,0.40122 -2.69258,1.1153 -0.71408,0.71409 -1.11531,1.68272 -1.11531,2.69259 0,1.00986 0.40123,1.9785 1.11531,2.69258 0.71408,0.71408 1.68272,1.1153 2.69258,1.1153 z"
       style="fill:#a0a0a0;fill-opacity:0.4;stroke-linecap:butt;stroke-linejoin:round"
       id="path355"
       inkscape:connector-curvature="0" />
    <path
       clip-path="url(#pd92a2ed880)"
       d="m 96.531989,303.72207 c 0.946964,0 1.855271,-0.37623 2.524876,-1.04584 0.669605,-0.6696 1.045835,-1.57791 1.045835,-2.52487 0,-0.94697 -0.37623,-1.85527 -1.045835,-2.52488 -0.669605,-0.6696 -1.577912,-1.04584 -2.524876,-1.04584 -0.946965,0 -1.855272,0.37624 -2.524877,1.04584 -0.669605,0.66961 -1.045838,1.57791 -1.045838,2.52488 0,0.94696 0.376233,1.85527 1.045838,2.52487 0.669605,0.66961 1.577912,1.04584 2.524877,1.04584 z"
       style="fill:#a0a0a0;fill-opacity:0.4;stroke-linecap:butt;stroke-linejoin:round"
       id="path357"
       inkscape:connector-curvature="0" />
    <path
       clip-path="url(#pd92a2ed880)"
       d="m 334.37163,157.0012 c 1.00987,0 1.9785,-0.40122 2.69259,-1.1153 0.71408,-0.71408 1.1153,-1.68272 1.1153,-2.69258 0,-1.00986 -0.40122,-1.9785 -1.1153,-2.69258 -0.71409,-0.71409 -1.68272,-1.11531 -2.69259,-1.11531 -1.00986,0 -1.9785,0.40122 -2.69258,1.11531 -0.71408,0.71408 -1.1153,1.68272 -1.1153,2.69258 0,1.00986 0.40122,1.9785 1.1153,2.69258 0.71408,0.71408 1.68272,1.1153 2.69258,1.1153 z"
       style="fill:#a0a0a0;fill-opacity:0.4;stroke-linecap:butt;stroke-linejoin:round"
       id="path359"
       inkscape:connector-curvature="0" />
    <path
       clip-path="url(#pd92a2ed880)"
       d="m 285.47208,224.23967 c 1.00987,0 1.9785,-0.40123 2.69259,-1.11531 0.71408,-0.71408 1.1153,-1.68272 1.1153,-2.69258 0,-1.00986 -0.40122,-1.9785 -1.1153,-2.69258 -0.71409,-0.71408 -1.68272,-1.11531 -2.69259,-1.11531 -1.00986,0 -1.9785,0.40123 -2.69258,1.11531 -0.71408,0.71408 -1.1153,1.68272 -1.1153,2.69258 0,1.00986 0.40122,1.9785 1.1153,2.69258 0.71408,0.71408 1.68272,1.11531 2.69258,1.11531 z"
       style="fill:#a0a0a0;fill-opacity:0.4;stroke-linecap:butt;stroke-linejoin:round"
       id="path361"
       inkscape:connector-curvature="0" />
    <path
       clip-path="url(#pd92a2ed880)"
       d="m 100.10086,367.51571 c 0.94696,0 1.85527,-0.37624 2.52488,-1.04584 0.6696,-0.66961 1.04583,-1.57791 1.04583,-2.52488 0,-0.94696 -0.37623,-1.85527 -1.04583,-2.52487 -0.66961,-0.66961 -1.57792,-1.04584 -2.52488,-1.04584 -0.946965,0 -1.855272,0.37623 -2.524877,1.04584 -0.669605,0.6696 -1.045838,1.57791 -1.045838,2.52487 0,0.94697 0.376233,1.85527 1.045838,2.52488 0.669605,0.6696 1.577912,1.04584 2.524877,1.04584 z"
       style="fill:#a0a0a0;fill-opacity:0.4;stroke-linecap:butt;stroke-linejoin:round"
       id="path363"
       inkscape:connector-curvature="0" />
  </g>
  <g
     id="text_1"
     style="stroke-linecap:butt;stroke-linejoin:round"
     transform="translate(-88.720195,-85.709286)">
    <g
       clip-path="url(#pd92a2ed880)"
       id="g366"
       style="stroke-linecap:butt;stroke-linejoin:round">
      <!-- Buffy -->
      <defs
         id="defs368">
        <path
           d="m 19.671875,34.8125 0,-26.703125 15.828125,0 q 7.953125,0 11.78125,3.296875 3.84375,3.296875 3.84375,10.078125 0,6.84375 -3.84375,10.078125 -3.828125,3.25 -11.78125,3.25 z m 0,29.984375 0,-21.96875 14.609375,0 q 7.21875,0 10.75,2.703125 3.546875,2.71875 3.546875,8.28125 0,5.515625 -3.546875,8.25 -3.53125,2.734375 -10.75,2.734375 z M 9.8125,72.90625 l 25.203125,0 q 11.28125,0 17.375,-4.6875 Q 58.5,63.53125 58.5,54.890625 58.5,48.1875 55.375,44.234375 52.25,40.28125 46.1875,39.3125 53.46875,37.75 57.5,32.78125 q 4.03125,-4.953125 4.03125,-12.375 0,-9.765625 -6.640625,-15.09375 Q 48.25,0 35.984375,0 L 9.8125,0 Z"
           id="DejaVuSans-42"
           inkscape:connector-curvature="0"
           style="stroke-linecap:butt;stroke-linejoin:round" />
        <path
           d="m 8.5,21.578125 0,33.109375 8.984375,0 0,-32.765625 q 0,-7.765625 3.015625,-11.65625 3.03125,-3.875 9.09375,-3.875 7.265625,0 11.484375,4.640625 4.234375,4.640625 4.234375,12.65625 l 0,31 8.984375,0 0,-54.6875 -8.984375,0 0,8.40625 Q 42.046875,3.421875 37.71875,1 33.40625,-1.421875 27.6875,-1.421875 18.265625,-1.421875 13.375,4.4375 8.5,10.296875 8.5,21.578125 M 31.109375,56 Z"
           id="DejaVuSans-75"
           inkscape:connector-curvature="0"
           style="stroke-linecap:butt;stroke-linejoin:round" />
        <path
           d="m 37.109375,75.984375 0,-7.484375 -8.59375,0 q -4.828125,0 -6.71875,-1.953125 -1.875,-1.953125 -1.875,-7.03125 l 0,-4.828125 14.796875,0 0,-6.984375 -14.796875,0 0,-47.703125 -9.03125,0 0,47.703125 -8.59375,0 0,6.984375 8.59375,0 0,3.8125 q 0,9.125 4.25,13.296875 4.25,4.1875 13.46875,4.1875 z"
           id="DejaVuSans-66"
           inkscape:connector-curvature="0"
           style="stroke-linecap:butt;stroke-linejoin:round" />
        <path
           d="M 32.171875,-5.078125 Q 28.375,-14.84375 24.75,-17.8125 q -3.609375,-2.984375 -9.65625,-2.984375 l -7.1875,0 0,7.515625 5.28125,0 q 3.703125,0 5.75,1.765625 2.0625,1.75 4.546875,8.296875 L 25.09375,0.875 2.984375,54.6875 12.5,54.6875 29.59375,11.921875 46.6875,54.6875 l 9.515625,0 z"
           id="DejaVuSans-79"
           inkscape:connector-curvature="0"
           style="stroke-linecap:butt;stroke-linejoin:round" />
      </defs>
      <g
         transform="matrix(0.12,0,0,-0.12,316.26917,259.02297)"
         id="g374"
         style="stroke-linecap:butt;stroke-linejoin:round">
        <use
           xlink:href="#DejaVuSans-42"
           id="use376"
           style="stroke-linecap:butt;stroke-linejoin:round"
           x="0"
           y="0"
           width="100%"
           height="100%" />
        <use
           x="68.603516"
           xlink:href="#DejaVuSans-75"
           id="use378"
           style="stroke-linecap:butt;stroke-linejoin:round"
           y="0"
           width="100%"
           height="100%" />
        <use
           x="131.98242"
           xlink:href="#DejaVuSans-66"
           id="use380"
           style="stroke-linecap:butt;stroke-linejoin:round"
           y="0"
           width="100%"
           height="100%" />
        <use
           x="167.1875"
           xlink:href="#DejaVuSans-66"
           id="use382"
           style="stroke-linecap:butt;stroke-linejoin:round"
           y="0"
           width="100%"
           height="100%" />
        <use
           x="202.37695"
           xlink:href="#DejaVuSans-79"
           id="use384"
           style="stroke-linecap:butt;stroke-linejoin:round"
           y="0"
           width="100%"
           height="100%" />
      </g>
    </g>
  </g>
  <g
     id="text_2"
     style="stroke-linecap:butt;stroke-linejoin:round"
     transform="translate(-88.720195,-85.709286)">
    <g
       clip-path="url(#pd92a2ed880)"
       id="g387"
       style="stroke-linecap:butt;stroke-linejoin:round">
      <!-- Spike -->
      <defs
         id="defs389">
        <path
           d="m 53.515625,70.515625 0,-9.625 q -5.609375,2.6875 -10.59375,4 -4.984375,1.328125 -9.625,1.328125 -8.046875,0 -12.421875,-3.125 -4.375,-3.125 -4.375,-8.890625 0,-4.84375 2.90625,-7.3125 2.90625,-2.453125 11.015625,-3.96875 L 36.375,41.703125 Q 47.40625,39.59375 52.65625,34.296875 57.90625,29 57.90625,20.125 q 0,-10.609375 -7.109375,-16.078125 -7.09375,-5.46875 -20.8125,-5.46875 -5.171875,0 -11.015625,1.171875 -5.828125,1.171875 -12.078125,3.46875 l 0,10.15625 q 6,-3.359375 11.765625,-5.078125 5.765625,-1.703125 11.328125,-1.703125 8.4375,0 13.03125,3.3125 4.59375,3.328125 4.59375,9.484375 0,5.359375 -3.296875,8.390625 Q 41.015625,30.8125 33.5,32.328125 L 27.484375,33.5 q -11.03125,2.1875 -15.96875,6.875 -4.921875,4.6875 -4.921875,13.046875 0,9.671875 6.8125,15.234375 6.8125,5.5625 18.765625,5.5625 5.140625,0 10.453125,-0.9375 5.328125,-0.921875 10.890625,-2.765625"
           id="DejaVuSans-53"
           inkscape:connector-curvature="0"
           style="stroke-linecap:butt;stroke-linejoin:round" />
        <path
           d="m 18.109375,8.203125 0,-29 -9.03125,0 0,75.484375 9.03125,0 0,-8.296875 q 2.84375,4.875 7.15625,7.234375 Q 29.59375,56 35.59375,56 q 9.96875,0 16.1875,-7.90625 6.234375,-7.90625 6.234375,-20.796875 0,-12.890625 -6.234375,-20.8125 -6.21875,-7.90625 -16.1875,-7.90625 -6,0 -10.328125,2.375 -4.3125,2.375 -7.15625,7.25 M 48.6875,27.296875 q 0,9.90625 -4.078125,15.546875 -4.078125,5.640625 -11.203125,5.640625 -7.140625,0 -11.21875,-5.640625 -4.078125,-5.640625 -4.078125,-15.546875 0,-9.90625 4.078125,-15.546875 4.078125,-5.640625 11.21875,-5.640625 7.125,0 11.203125,5.640625 4.078125,5.640625 4.078125,15.546875"
           id="DejaVuSans-70"
           inkscape:connector-curvature="0"
           style="stroke-linecap:butt;stroke-linejoin:round" />
        <path
           d="m 9.421875,54.6875 8.984375,0 0,-54.6875 -8.984375,0 z m 0,21.296875 8.984375,0 0,-11.390625 -8.984375,0 z"
           id="DejaVuSans-69"
           inkscape:connector-curvature="0"
           style="stroke-linecap:butt;stroke-linejoin:round" />
        <path
           d="m 9.078125,75.984375 9.03125,0 0,-44.875 26.8125,23.578125 11.46875,0 -29,-25.578125 L 57.625,0 45.90625,0 18.109375,26.703125 18.109375,0 9.078125,0 Z"
           id="DejaVuSans-6b"
           inkscape:connector-curvature="0"
           style="stroke-linecap:butt;stroke-linejoin:round" />
        <path
           d="m 56.203125,29.59375 0,-4.390625 -41.3125,0 q 0.59375,-9.28125 5.59375,-14.140625 5,-4.859375 13.9375,-4.859375 5.171875,0 10.03125,1.265625 4.859375,1.265625 9.65625,3.8125 l 0,-8.5 q -4.84375,-2.046875 -9.921875,-3.125 -5.078125,-1.078125 -10.296875,-1.078125 -13.09375,0 -20.734375,7.609375 -7.640625,7.625 -7.640625,20.625 0,13.421875 7.25,21.296875 Q 20.015625,56 32.328125,56 q 11.03125,0 17.453125,-7.109375 6.421875,-7.09375 6.421875,-19.296875 m -8.984375,2.640625 q -0.09375,7.359375 -4.125,11.75 -4.03125,4.40625 -10.671875,4.40625 -7.515625,0 -12.03125,-4.25 -4.515625,-4.25 -5.203125,-11.96875 z"
           id="DejaVuSans-65"
           inkscape:connector-curvature="0"
           style="stroke-linecap:butt;stroke-linejoin:round" />
      </defs>
      <g
         transform="matrix(0.12,0,0,-0.12,296.89861,307.85803)"
         id="g396"
         style="stroke-linecap:butt;stroke-linejoin:round">
        <use
           xlink:href="#DejaVuSans-53"
           id="use398"
           style="stroke-linecap:butt;stroke-linejoin:round"
           x="0"
           y="0"
           width="100%"
           height="100%" />
        <use
           x="63.476562"
           xlink:href="#DejaVuSans-70"
           id="use400"
           style="stroke-linecap:butt;stroke-linejoin:round"
           y="0"
           width="100%"
           height="100%" />
        <use
           x="126.95312"
           xlink:href="#DejaVuSans-69"
           id="use402"
           style="stroke-linecap:butt;stroke-linejoin:round"
           y="0"
           width="100%"
           height="100%" />
        <use
           x="154.73633"
           xlink:href="#DejaVuSans-6b"
           id="use404"
           style="stroke-linecap:butt;stroke-linejoin:round"
           y="0"
           width="100%"
           height="100%" />
        <use
           x="212.59961"
           xlink:href="#DejaVuSans-65"
           id="use406"
           style="stroke-linecap:butt;stroke-linejoin:round"
           y="0"
           width="100%"
           height="100%" />
      </g>
    </g>
  </g>
  <g
     id="text_3"
     style="stroke-linecap:butt;stroke-linejoin:round"
     transform="translate(-88.720195,-85.709286)">
    <g
       clip-path="url(#pd92a2ed880)"
       id="g409"
       style="stroke-linecap:butt;stroke-linejoin:round">
      <!-- Anya -->
      <defs
         id="defs411">
        <path
           d="m 34.1875,63.1875 -13.390625,-36.28125 26.8125,0 z m -5.578125,9.71875 11.1875,0 L 67.578125,0 l -10.25,0 -6.640625,18.703125 -32.859375,0 L 11.1875,0 0.78125,0 Z"
           id="DejaVuSans-41"
           inkscape:connector-curvature="0"
           style="stroke-linecap:butt;stroke-linejoin:round" />
        <path
           d="m 54.890625,33.015625 0,-33.015625 -8.984375,0 0,32.71875 q 0,7.765625 -3.03125,11.609375 -3.03125,3.859375 -9.078125,3.859375 -7.28125,0 -11.484375,-4.640625 -4.203125,-4.625 -4.203125,-12.640625 l 0,-30.90625 -9.03125,0 0,54.6875 9.03125,0 0,-8.5 q 3.234375,4.9375 7.59375,7.375 4.375,2.4375 10.09375,2.4375 9.421875,0 14.25,-5.828125 4.84375,-5.828125 4.84375,-17.15625"
           id="DejaVuSans-6e"
           inkscape:connector-curvature="0"
           style="stroke-linecap:butt;stroke-linejoin:round" />
        <path
           d="m 34.28125,27.484375 q -10.890625,0 -15.09375,-2.484375 -4.203125,-2.484375 -4.203125,-8.5 0,-4.78125 3.15625,-7.59375 3.15625,-2.796875 8.5625,-2.796875 7.484375,0 12,5.296875 4.515625,5.296875 4.515625,14.078125 l 0,2 z m 17.921875,3.71875 0,-31.203125 -8.984375,0 0,8.296875 q -3.078125,-4.96875 -7.671875,-7.34375 -4.59375,-2.375 -11.234375,-2.375 -8.390625,0 -13.359375,4.71875 Q 6,8.015625 6,15.921875 q 0,9.21875 6.171875,13.90625 6.1875,4.6875 18.4375,4.6875 l 12.609375,0 0,0.890625 q 0,6.203125 -4.078125,9.59375 -4.078125,3.390625 -11.453125,3.390625 -4.6875,0 -9.140625,-1.125 -4.4375,-1.125 -8.53125,-3.375 l 0,8.3125 q 4.921875,1.90625 9.5625,2.84375 Q 24.21875,56 28.609375,56 q 11.875,0 17.734375,-6.15625 5.859375,-6.140625 5.859375,-18.640625"
           id="DejaVuSans-61"
           inkscape:connector-curvature="0"
           style="stroke-linecap:butt;stroke-linejoin:round" />
      </defs>
      <g
         transform="matrix(0.12,0,0,-0.12,152.46556,188.2366)"
         id="g416"
         style="stroke-linecap:butt;stroke-linejoin:round">
        <use
           xlink:href="#DejaVuSans-41"
           id="use418"
           style="stroke-linecap:butt;stroke-linejoin:round"
           x="0"
           y="0"
           width="100%"
           height="100%" />
        <use
           x="68.408203"
           xlink:href="#DejaVuSans-6e"
           id="use420"
           style="stroke-linecap:butt;stroke-linejoin:round"
           y="0"
           width="100%"
           height="100%" />
        <use
           x="131.78711"
           xlink:href="#DejaVuSans-79"
           id="use422"
           style="stroke-linecap:butt;stroke-linejoin:round"
           y="0"
           width="100%"
           height="100%" />
        <use
           x="190.9668"
           xlink:href="#DejaVuSans-61"
           id="use424"
           style="stroke-linecap:butt;stroke-linejoin:round"
           y="0"
           width="100%"
           height="100%" />
      </g>
    </g>
  </g>
  <g
     id="text_4"
     style="stroke-linecap:butt;stroke-linejoin:round"
     transform="translate(-88.720195,-85.709286)">
    <g
       clip-path="url(#pd92a2ed880)"
       id="g427"
       style="stroke-linecap:butt;stroke-linejoin:round">
      <!-- Willow -->
      <defs
         id="defs429">
        <path
           d="m 3.328125,72.90625 9.953125,0 15.328125,-61.625 15.28125,61.625 11.09375,0 15.328125,-61.625 15.28125,61.625 10.015625,0 L 77.296875,0 64.890625,0 49.515625,63.28125 33.984375,0 21.578125,0 Z"
           id="DejaVuSans-57"
           inkscape:connector-curvature="0"
           style="stroke-linecap:butt;stroke-linejoin:round" />
        <path
           d="m 9.421875,75.984375 8.984375,0 L 18.40625,0 9.421875,0 Z"
           id="DejaVuSans-6c"
           inkscape:connector-curvature="0"
           style="stroke-linecap:butt;stroke-linejoin:round" />
        <path
           d="m 30.609375,48.390625 q -7.21875,0 -11.421875,-5.640625 -4.203125,-5.640625 -4.203125,-15.453125 0,-9.8125 4.171875,-15.453125 4.1875,-5.640625 11.453125,-5.640625 7.1875,0 11.375,5.65625 4.203125,5.671875 4.203125,15.4375 0,9.71875 -4.203125,15.40625 -4.1875,5.6875 -11.375,5.6875 m 0,7.609375 q 11.71875,0 18.40625,-7.625 6.703125,-7.609375 6.703125,-21.078125 0,-13.421875 -6.703125,-21.078125 -6.6875,-7.640625 -18.40625,-7.640625 -11.765625,0 -18.4375,7.640625 -6.65625,7.65625 -6.65625,21.078125 0,13.46875 6.65625,21.078125 Q 18.84375,56 30.609375,56"
           id="DejaVuSans-6f"
           inkscape:connector-curvature="0"
           style="stroke-linecap:butt;stroke-linejoin:round" />
        <path
           d="m 4.203125,54.6875 8.984375,0 11.234375,-42.671875 11.171875,42.671875 10.59375,0 11.234375,-42.671875 11.1875,42.671875 8.984375,0 L 63.28125,0 52.6875,0 40.921875,44.828125 29.109375,0 18.5,0 Z"
           id="DejaVuSans-77"
           inkscape:connector-curvature="0"
           style="stroke-linecap:butt;stroke-linejoin:round" />
      </defs>
      <g
         transform="matrix(0.12,0,0,-0.12,239.55709,151.98237)"
         id="g435"
         style="stroke-linecap:butt;stroke-linejoin:round">
        <use
           xlink:href="#DejaVuSans-57"
           id="use437"
           style="stroke-linecap:butt;stroke-linejoin:round"
           x="0"
           y="0"
           width="100%"
           height="100%" />
        <use
           x="98.845703"
           xlink:href="#DejaVuSans-69"
           id="use439"
           style="stroke-linecap:butt;stroke-linejoin:round"
           y="0"
           width="100%"
           height="100%" />
        <use
           x="126.62891"
           xlink:href="#DejaVuSans-6c"
           id="use441"
           style="stroke-linecap:butt;stroke-linejoin:round"
           y="0"
           width="100%"
           height="100%" />
        <use
           x="154.41211"
           xlink:href="#DejaVuSans-6c"
           id="use443"
           style="stroke-linecap:butt;stroke-linejoin:round"
           y="0"
           width="100%"
           height="100%" />
        <use
           x="182.19531"
           xlink:href="#DejaVuSans-6f"
           id="use445"
           style="stroke-linecap:butt;stroke-linejoin:round"
           y="0"
           width="100%"
           height="100%" />
        <use
           x="243.37695"
           xlink:href="#DejaVuSans-77"
           id="use447"
           style="stroke-linecap:butt;stroke-linejoin:round"
           y="0"
           width="100%"
           height="100%" />
      </g>
    </g>
  </g>
  <g
     id="text_5"
     style="stroke-linecap:butt;stroke-linejoin:round"
     transform="translate(-88.720195,-85.709286)">
    <g
       clip-path="url(#pd92a2ed880)"
       id="g450"
       style="stroke-linecap:butt;stroke-linejoin:round">
      <!-- Wesley -->
      <defs
         id="defs452">
        <path
           d="m 44.28125,53.078125 0,-8.5 Q 40.484375,46.53125 36.375,47.5 q -4.09375,0.984375 -8.5,0.984375 -6.6875,0 -10.03125,-2.046875 Q 14.5,44.390625 14.5,40.28125 q 0,-3.125 2.390625,-4.90625 2.390625,-1.78125 9.625,-3.390625 l 3.078125,-0.6875 Q 39.15625,29.25 43.1875,25.515625 47.21875,21.78125 47.21875,15.09375 q 0,-7.625 -6.03125,-12.078125 -6.03125,-4.4375 -16.578125,-4.4375 -4.390625,0 -9.15625,0.859375 Q 10.6875,0.296875 5.421875,2 l 0,9.28125 q 4.984375,-2.59375 9.8125,-3.890625 4.828125,-1.28125 9.578125,-1.28125 6.34375,0 9.75,2.171875 3.421875,2.171875 3.421875,6.125 0,3.65625 -2.46875,5.609375 -2.453125,1.953125 -10.8125,3.765625 l -3.125,0.734375 q -8.34375,1.75 -12.0625,5.390625 -3.703125,3.640625 -3.703125,9.984375 0,7.71875 5.46875,11.90625 Q 16.75,56 26.8125,56 q 4.96875,0 9.359375,-0.734375 4.40625,-0.71875 8.109375,-2.1875"
           id="DejaVuSans-73"
           inkscape:connector-curvature="0"
           style="stroke-linecap:butt;stroke-linejoin:round" />
      </defs>
      <g
         transform="matrix(0.12,0,0,-0.12,350.98813,369.33869)"
         id="g455"
         style="stroke-linecap:butt;stroke-linejoin:round">
        <use
           xlink:href="#DejaVuSans-57"
           id="use457"
           style="stroke-linecap:butt;stroke-linejoin:round"
           x="0"
           y="0"
           width="100%"
           height="100%" />
        <use
           x="98.798828"
           xlink:href="#DejaVuSans-65"
           id="use459"
           style="stroke-linecap:butt;stroke-linejoin:round"
           y="0"
           width="100%"
           height="100%" />
        <use
           x="160.32227"
           xlink:href="#DejaVuSans-73"
           id="use461"
           style="stroke-linecap:butt;stroke-linejoin:round"
           y="0"
           width="100%"
           height="100%" />
        <use
           x="212.42188"
           xlink:href="#DejaVuSans-6c"
           id="use463"
           style="stroke-linecap:butt;stroke-linejoin:round"
           y="0"
           width="100%"
           height="100%" />
        <use
           x="240.20508"
           xlink:href="#DejaVuSans-65"
           id="use465"
           style="stroke-linecap:butt;stroke-linejoin:round"
           y="0"
           width="100%"
           height="100%" />
        <use
           x="301.72852"
           xlink:href="#DejaVuSans-79"
           id="use467"
           style="stroke-linecap:butt;stroke-linejoin:round"
           y="0"
           width="100%"
           height="100%" />
      </g>
    </g>
  </g>
  <g
     id="text_6"
     style="stroke-linecap:butt;stroke-linejoin:round"
     transform="translate(-88.720195,-85.709286)">
    <g
       clip-path="url(#pd92a2ed880)"
       id="g470"
       style="stroke-linecap:butt;stroke-linejoin:round">
      <!-- Kennedy -->
      <defs
         id="defs472">
        <path
           d="m 9.8125,72.90625 9.859375,0 0,-30.8125 32.71875,30.8125 12.703125,0 L 28.90625,38.921875 67.671875,0 54.6875,0 19.671875,35.109375 19.671875,0 9.8125,0 Z"
           id="DejaVuSans-4b"
           inkscape:connector-curvature="0"
           style="stroke-linecap:butt;stroke-linejoin:round" />
        <path
           d="m 45.40625,46.390625 0,29.59375 8.984375,0 0,-75.984375 -8.984375,0 0,8.203125 q -2.828125,-4.875 -7.15625,-7.25 -4.3125,-2.375 -10.375,-2.375 -9.90625,0 -16.140625,7.90625 -6.21875,7.921875 -6.21875,20.8125 0,12.890625 6.21875,20.796875 Q 17.96875,56 27.875,56 q 6.0625,0 10.375,-2.375 4.328125,-2.359375 7.15625,-7.234375 M 14.796875,27.296875 q 0,-9.90625 4.078125,-15.546875 4.078125,-5.640625 11.203125,-5.640625 7.125,0 11.21875,5.640625 4.109375,5.640625 4.109375,15.546875 0,9.90625 -4.109375,15.546875 -4.09375,5.640625 -11.21875,5.640625 -7.125,0 -11.203125,-5.640625 -4.078125,-5.640625 -4.078125,-15.546875"
           id="DejaVuSans-64"
           inkscape:connector-curvature="0"
           style="stroke-linecap:butt;stroke-linejoin:round" />
      </defs>
      <g
         transform="matrix(0.12,0,0,-0.12,181.28063,332.29129)"
         id="g476"
         style="stroke-linecap:butt;stroke-linejoin:round">
        <use
           xlink:href="#DejaVuSans-4b"
           id="use478"
           style="stroke-linecap:butt;stroke-linejoin:round"
           x="0"
           y="0"
           width="100%"
           height="100%" />
        <use
           x="65.498047"
           xlink:href="#DejaVuSans-65"
           id="use480"
           style="stroke-linecap:butt;stroke-linejoin:round"
           y="0"
           width="100%"
           height="100%" />
        <use
           x="127.02148"
           xlink:href="#DejaVuSans-6e"
           id="use482"
           style="stroke-linecap:butt;stroke-linejoin:round"
           y="0"
           width="100%"
           height="100%" />
        <use
           x="190.40039"
           xlink:href="#DejaVuSans-6e"
           id="use484"
           style="stroke-linecap:butt;stroke-linejoin:round"
           y="0"
           width="100%"
           height="100%" />
        <use
           x="253.7793"
           xlink:href="#DejaVuSans-65"
           id="use486"
           style="stroke-linecap:butt;stroke-linejoin:round"
           y="0"
           width="100%"
           height="100%" />
        <use
           x="315.30273"
           xlink:href="#DejaVuSans-64"
           id="use488"
           style="stroke-linecap:butt;stroke-linejoin:round"
           y="0"
           width="100%"
           height="100%" />
        <use
           x="378.7793"
           xlink:href="#DejaVuSans-79"
           id="use490"
           style="stroke-linecap:butt;stroke-linejoin:round"
           y="0"
           width="100%"
           height="100%" />
      </g>
    </g>
  </g>
  <g
     id="text_7"
     style="stroke-linecap:butt;stroke-linejoin:round"
     transform="translate(-88.720195,-85.709286)">
    <g
       clip-path="url(#pd92a2ed880)"
       id="g493"
       style="stroke-linecap:butt;stroke-linejoin:round">
      <!-- Cordelia -->
      <defs
         id="defs495">
        <path
           d="m 64.40625,67.28125 0,-10.390625 q -4.984375,4.640625 -10.625,6.921875 -5.640625,2.296875 -11.984375,2.296875 -12.5,0 -19.140625,-7.640625 -6.640625,-7.640625 -6.640625,-22.09375 0,-14.40625 6.640625,-22.046875 Q 29.296875,6.6875 41.796875,6.6875 q 6.34375,0 11.984375,2.296875 5.640625,2.296875 10.625,6.9375 l 0,-10.3125 Q 59.234375,2.09375 53.4375,0.328125 q -5.78125,-1.75 -12.21875,-1.75 -16.5625,0 -26.09375,10.125 Q 5.609375,18.84375 5.609375,36.375 q 0,17.578125 9.515625,27.703125 9.53125,10.140625 26.09375,10.140625 6.53125,0 12.3125,-1.734375 5.796875,-1.734375 10.875,-5.203125"
           id="DejaVuSans-43"
           inkscape:connector-curvature="0"
           style="stroke-linecap:butt;stroke-linejoin:round" />
        <path
           d="m 41.109375,46.296875 q -1.515625,0.875 -3.296875,1.28125 Q 36.03125,48 33.890625,48 26.265625,48 22.1875,43.046875 18.109375,38.09375 18.109375,28.8125 l 0,-28.8125 -9.03125,0 0,54.6875 9.03125,0 0,-8.5 q 2.84375,4.984375 7.375,7.390625 Q 30.03125,56 36.53125,56 q 0.921875,0 2.046875,-0.125 1.125,-0.109375 2.484375,-0.359375 z"
           id="DejaVuSans-72"
           inkscape:connector-curvature="0"
           style="stroke-linecap:butt;stroke-linejoin:round" />
      </defs>
      <g
         transform="matrix(0.12,0,0,-0.12,291.00343,401.56962)"
         id="g499"
         style="stroke-linecap:butt;stroke-linejoin:round">
        <use
           xlink:href="#DejaVuSans-43"
           id="use501"
           style="stroke-linecap:butt;stroke-linejoin:round"
           x="0"
           y="0"
           width="100%"
           height="100%" />
        <use
           x="69.824219"
           xlink:href="#DejaVuSans-6f"
           id="use503"
           style="stroke-linecap:butt;stroke-linejoin:round"
           y="0"
           width="100%"
           height="100%" />
        <use
           x="131.00586"
           xlink:href="#DejaVuSans-72"
           id="use505"
           style="stroke-linecap:butt;stroke-linejoin:round"
           y="0"
           width="100%"
           height="100%" />
        <use
           x="172.10352"
           xlink:href="#DejaVuSans-64"
           id="use507"
           style="stroke-linecap:butt;stroke-linejoin:round"
           y="0"
           width="100%"
           height="100%" />
        <use
           x="235.58008"
           xlink:href="#DejaVuSans-65"
           id="use509"
           style="stroke-linecap:butt;stroke-linejoin:round"
           y="0"
           width="100%"
           height="100%" />
        <use
           x="297.10352"
           xlink:href="#DejaVuSans-6c"
           id="use511"
           style="stroke-linecap:butt;stroke-linejoin:round"
           y="0"
           width="100%"
           height="100%" />
        <use
           x="324.88672"
           xlink:href="#DejaVuSans-69"
           id="use513"
           style="stroke-linecap:butt;stroke-linejoin:round"
           y="0"
           width="100%"
           height="100%" />
        <use
           x="352.66992"
           xlink:href="#DejaVuSans-61"
           id="use515"
           style="stroke-linecap:butt;stroke-linejoin:round"
           y="0"
           width="100%"
           height="100%" />
      </g>
    </g>
  </g>
  <g
     id="text_8"
     style="stroke-linecap:butt;stroke-linejoin:round"
     transform="translate(-88.720195,-85.709286)">
    <g
       clip-path="url(#pd92a2ed880)"
       id="g518"
       style="stroke-linecap:butt;stroke-linejoin:round">
      <!-- Xander -->
      <defs
         id="defs520">
        <path
           d="m 6.296875,72.90625 10.59375,0 18.125,-27.109375 18.203125,27.109375 10.59375,0 L 40.375,37.890625 65.375,0 54.78125,0 34.28125,31 13.625,0 2.984375,0 29,38.921875 Z"
           id="DejaVuSans-58"
           inkscape:connector-curvature="0"
           style="stroke-linecap:butt;stroke-linejoin:round" />
      </defs>
      <g
         transform="matrix(0.12,0,0,-0.12,274.732,295.23458)"
         id="g523"
         style="stroke-linecap:butt;stroke-linejoin:round">
        <use
           xlink:href="#DejaVuSans-58"
           id="use525"
           style="stroke-linecap:butt;stroke-linejoin:round"
           x="0"
           y="0"
           width="100%"
           height="100%" />
        <use
           x="68.505859"
           xlink:href="#DejaVuSans-61"
           id="use527"
           style="stroke-linecap:butt;stroke-linejoin:round"
           y="0"
           width="100%"
           height="100%" />
        <use
           x="129.78516"
           xlink:href="#DejaVuSans-6e"
           id="use529"
           style="stroke-linecap:butt;stroke-linejoin:round"
           y="0"
           width="100%"
           height="100%" />
        <use
           x="193.16406"
           xlink:href="#DejaVuSans-64"
           id="use531"
           style="stroke-linecap:butt;stroke-linejoin:round"
           y="0"
           width="100%"
           height="100%" />
        <use
           x="256.64062"
           xlink:href="#DejaVuSans-65"
           id="use533"
           style="stroke-linecap:butt;stroke-linejoin:round"
           y="0"
           width="100%"
           height="100%" />
        <use
           x="318.16406"
           xlink:href="#DejaVuSans-72"
           id="use535"
           style="stroke-linecap:butt;stroke-linejoin:round"
           y="0"
           width="100%"
           height="100%" />
      </g>
    </g>
  </g>
  <g
     id="text_9"
     style="stroke-linecap:butt;stroke-linejoin:round"
     transform="translate(-88.720195,-85.709286)">
    <g
       clip-path="url(#pd92a2ed880)"
       id="g538"
       style="stroke-linecap:butt;stroke-linejoin:round">
      <!-- Angel -->
      <defs
         id="defs540">
        <path
           d="m 45.40625,27.984375 q 0,9.765625 -4.03125,15.125 -4.015625,5.375 -11.296875,5.375 -7.21875,0 -11.25,-5.375 -4.03125,-5.359375 -4.03125,-15.125 0,-9.71875 4.03125,-15.09375 4.03125,-5.375 11.25,-5.375 7.28125,0 11.296875,5.375 4.03125,5.375 4.03125,15.09375 M 54.390625,6.78125 q 0,-13.953125 -6.203125,-20.765625 -6.1875,-6.8125 -18.984375,-6.8125 -4.734375,0 -8.9375,0.703125 -4.203125,0.703125 -8.15625,2.171875 l 0,8.734375 q 3.953125,-2.140625 7.8125,-3.15625 3.859375,-1.03125 7.859375,-1.03125 8.84375,0 13.234375,4.609375 4.390625,4.609375 4.390625,13.9375 l 0,4.453125 Q 42.625,4.78125 38.28125,2.390625 33.9375,0 27.875,0 17.828125,0 11.671875,7.65625 q -6.15625,7.671875 -6.15625,20.328125 0,12.6875 6.15625,20.34375 Q 17.828125,56 27.875,56 q 6.0625,0 10.40625,-2.390625 4.34375,-2.390625 7.125,-7.21875 l 0,8.296875 8.984375,0 z"
           id="DejaVuSans-67"
           inkscape:connector-curvature="0"
           style="stroke-linecap:butt;stroke-linejoin:round" />
      </defs>
      <g
         transform="matrix(0.12,0,0,-0.12,339.67734,338.44934)"
         id="g543"
         style="stroke-linecap:butt;stroke-linejoin:round">
        <use
           xlink:href="#DejaVuSans-41"
           id="use545"
           style="stroke-linecap:butt;stroke-linejoin:round"
           x="0"
           y="0"
           width="100%"
           height="100%" />
        <use
           x="68.408203"
           xlink:href="#DejaVuSans-6e"
           id="use547"
           style="stroke-linecap:butt;stroke-linejoin:round"
           y="0"
           width="100%"
           height="100%" />
        <use
           x="131.78711"
           xlink:href="#DejaVuSans-67"
           id="use549"
           style="stroke-linecap:butt;stroke-linejoin:round"
           y="0"
           width="100%"
           height="100%" />
        <use
           x="195.26367"
           xlink:href="#DejaVuSans-65"
           id="use551"
           style="stroke-linecap:butt;stroke-linejoin:round"
           y="0"
           width="100%"
           height="100%" />
        <use
           x="256.78711"
           xlink:href="#DejaVuSans-6c"
           id="use553"
           style="stroke-linecap:butt;stroke-linejoin:round"
           y="0"
           width="100%"
           height="100%" />
      </g>
    </g>
  </g>
  <defs
     id="defs555">
    <clipPath
       id="pd92a2ed880"
       style="stroke-linecap:butt;stroke-linejoin:round">
      <rect
         height="443.51999"
         width="446.39999"
         x="72"
         y="69.120003"
         id="rect558"
         style="stroke-linecap:butt;stroke-linejoin:round" />
    </clipPath>
  </defs>
</svg>
